<svg width="34" height="12" xmlns="http://www.w3.org/2000/svg" viewBox="0 0 34 12"><path d="M1.99 3.02h1.278l-.64-1.47zm15.34-.587c.17-.054.17-.251.17-.348 0-.16 0-.267-.17-.347-.112-.054-.306-.054-.473-.054h-1.14v.829h1.14c.195 0 .334 0 .473-.08zm8.111.587-.691-1.47-.632 1.47zM10.326.91v3.74h-.945V1.71L8.02 4.65h-.806L5.852 1.71v2.94h-1.89l-.361-.828H1.618l-.323.828h-1L1.961.91H3.35l1.584 3.527V.909h1.5l1.223 2.546L8.798.909zm3.808 3.74H11.02V.91h3.113v.774h-2.168v.668h2.14v.775h-2.14v.749h2.168zm4.418-2.725c0 .588-.417.881-.667.988.195.08.361.214.445.321.139.22.166.347.166.668v.748H17.5v-.48c0-.214.08-.535-.087-.715-.139-.14-.361-.168-.695-.168h-1V4.65h-.865V.91h2.088c.472 0 .805 0 1.111.16.306.186.5.427.5.855zM20.025.909V4.65h-.944V.91zm9.7 3.741-1.752-2.806V4.65h-1.89l-.36-.828h-1.946l-.361.828h-1.084c-.445 0-1.028-.106-1.362-.427-.305-.32-.472-.768-.472-1.417 0-.624.083-1.069.5-1.47.278-.293.778-.427 1.417-.427h.89v.802h-.89c-.333 0-.528.053-.722.214-.222.16-.222.454-.222.855 0 .4 0 .675.222.882.138.133.389.187.639.187h.462l1.324-2.94h1.323l1.587 3.528V.909h1.446l1.64 2.546V.909h.944V4.65zm-18.843 5.666 1.112-1.096-1.028-1.095H8.63v.695h2.056v.748H8.631v.748zm3.752.454V7.75l-1.445 1.47zm2.696-2.225c0-.287-.223-.42-.556-.42H15.55v.962h1.223c.333 0 .556-.187.556-.542zm3.974.355c.167-.08.167-.214.167-.355 0-.18 0-.287-.167-.34-.111-.08-.278-.08-.445-.08h-1.14v.855l1.14-.027c.167 0 .306 0 .445-.053zm-2.973-.355c0 1.076-.831 1.273-1.612 1.273H15.55v1.273h-1.806l-1.14-1.273-1.195 1.273H7.714V7.35h3.752l1.14 1.195L13.8 7.35h2.974c.726 0 1.556.213 1.557 1.195zm4.196-.18c0 .588-.417.909-.667.989.222.08.389.213.472.32.111.144.139.348.139.695v.722h-.917v-.454c0-.241 0-.562-.167-.749a1.355 1.355 0 0 0-.667-.16h-1v1.363h-.897V7.35h2.092c.472 0 .833.026 1.139.187.306.16.473.4.473.828zm3.64 2.726h-3.112V7.35h3.112v.775h-2.195v.695h2.14v.748h-2.14v.748h2.195zm3.557-1.978c.167.187.278.428.278.802 0 .802-.59 1.176-1.473 1.176h-1.764v-.802h1.764c.167 0 .278-.027.361-.08a.334.334 0 0 0 .112-.24c0-.15-.056-.15-.112-.268-.055-.053-.166-.08-.333-.08-.861-.027-1.946.027-1.946-1.149 0-.535.334-1.123 1.335-1.123h1.862v.802h-1.72c-.17 0-.281 0-.365.053-.11.08-.139.16-.139.341 0 .087.083.167.195.221.11.026.222.053.31.053h.551c.528 0 .862.107 1.084.294zm2.446 1.978h-1.806v-.802h1.806c.166 0 .305-.027.361-.08a.335.335 0 0 0 .111-.24c0-.15-.055-.15-.11-.268-.057-.053-.168-.08-.334-.08-.862-.027-1.946.027-1.946-1.149 0-.535.362-1.123 1.334-1.123h1.796v.802h-1.657c-.166 0-.278 0-.361.053-.084.08-.139.16-.139.341 0 .087.083.167.194.221.112.027.223.053.362.053h.5c.528 0 .862.107 1.101.294.15.187.26.428.26.802 0 .802-.527 1.176-1.472 1.176z" fill="#0077a6"/></svg>