<svg viewBox="0 0 512 512" xml:space="preserve" xmlns="http://www.w3.org/2000/svg"><g fill="#fff"><path d="M256.9 507.9c-137.8 0-249-112.5-248.4-252.5C9.1 117.2 120.6 4.8 259.8 6.2c136.2 1.5 247 113.2 245.7 253.2-1.2 137.4-111.5 248.1-248.6 248.5zm.2-482c-124.2-.4-227.7 100.7-229 228.5C26.7 384.9 131 487.2 254.9 488.2c125.6 1.1 230.3-100.7 231-229.1.6-129.6-101.6-233.2-228.8-233.2z"/><path d="M113.1 276.3c.3-30.8 5.5-55.4 21.8-76.3 18.8-24.1 43.7-36 74.6-33.1 10.2 1 20 4.3 29.1 8.8 14 7 27.2 6.6 41.1.1 12.3-5.8 25.3-9.7 38.9-10.2 28.4-1.2 52 8.9 70.5 30.7 1.9 2.2 2.5 3.7-.7 5.8-50.6 34.1-45.9 107.9 8.6 135.8 2.6 1.3 3.9 2.3 2.7 5.6-10.7 29.4-26.5 55.6-49.1 77.3-11.4 10.9-25 14.3-40.6 10.6-9.3-2.2-17.8-6.4-26.9-9.3-19.2-6.2-37.1-1.6-54.9 5.6-13.3 5.4-26.9 8.7-40.5 1.2-9.2-5-16.3-12.7-22.9-20.6-33.1-39.5-49.7-85.5-51.7-132zm143-122c.6-28.8 21.3-57.8 48.2-68.2 6.2-2.4 12.6-4.3 19-5.8 2.8-.6 4.4-.2 4.4 3.2-.4 30.2-13 53.9-38.2 70.5-7.6 5-16.4 7.2-25.5 7.8-8 .5-8 .4-7.9-7.5z"/></g></svg>