<svg width="18" height="19" xmlns="http://www.w3.org/2000/svg" viewBox="0 0 18 19"><path d="M6.503 10.157a.417.417 0 0 0-.417-.417H4.628a.418.418 0 0 0-.418.417v1.458c0 .231.187.385.418.385h1.458c.23 0 .417-.154.417-.385v-1.458zm3.64 0c0-.23-.143-.417-.417-.417H8.268c-.268 0-.418.187-.418.417v1.458c0 .231.15.385.418.385h1.458c.274 0 .417-.154.417-.385zm3.65 0a.417.417 0 0 0-.417-.417h-1.458a.418.418 0 0 0-.418.417v1.458c0 .231.187.385.418.385h1.458c.23 0 .417-.154.417-.385zm-7.29 3.641a.417.417 0 0 0-.417-.418H4.628a.418.418 0 0 0-.418.418v1.457c0 .231.187.418.418.418h1.458c.23 0 .417-.187.417-.418v-1.457zm3.64 0c0-.231-.143-.418-.417-.418H8.268c-.268 0-.418.187-.418.418v1.457c0 .231.15.418.418.418h1.458c.274 0 .417-.187.417-.418zm3.65 0a.417.417 0 0 0-.417-.418h-1.458a.417.417 0 0 0-.418.418v1.457c0 .231.187.418.418.418h1.458c.23 0 .417-.187.417-.418v-1.457z"/><path d="M15.15 16.647H2.818a.713.713 0 0 1-.713-.713v-6.74c0-.395.32-.714.713-.714H15.15c.394 0 .714.32.714.713v6.741c0 .394-.32.713-.714.713zM16.398 2v2.275a1.819 1.819 0 0 1-1.823 1.817h-1.15a1.828 1.828 0 0 1-1.834-1.817V2H6.41v2.275a1.828 1.828 0 0 1-1.834 1.817h-1.15a1.819 1.819 0 0 1-1.823-1.817V2C.722 2.074 0 2.802 0 3.697v13.05c0 .911.739 1.66 1.65 1.66h14.7c.91 0 1.65-.75 1.65-1.66V3.697c0-.895-.723-1.623-1.602-1.697z" fill="#f63"/><path d="M3.425 4.9h1.138c.345 0 .625-.28.625-.625V.625A.625.625 0 0 0 4.563 0H3.425A.625.625 0 0 0 2.8.625v3.65c0 .346.28.625.625.625zm9.99 0h1.137c.345 0 .625-.28.625-.625V.625A.625.625 0 0 0 14.552 0h-1.137a.625.625 0 0 0-.625.625v3.65c0 .346.28.625.625.625z"/></svg>