<svg width="32" height="32" xmlns="http://www.w3.org/2000/svg" viewBox="0 0 32 32"><defs><clipPath id="a"><path d="M16 32c8.837 0 16-7.163 16-16S24.837 0 16 0 0 7.163 0 16s7.163 16 16 16z" fill="#fff"/></clipPath></defs><g fill="#fff"><path d="M16 32c8.837 0 16-7.163 16-16S24.837 0 16 0 0 7.163 0 16s7.163 16 16 16z"/><path d="M16 32c8.837 0 16-7.163 16-16S24.837 0 16 0 0 7.163 0 16s7.163 16 16 16z" stroke="#f63" stroke-miterlimit="20" stroke-width="4" clip-path="url(&quot;#a&quot;)" fill="none"/></g><path d="M24 15a1 1 0 0 1 0 2H8a1 1 0 0 1 0-2z" fill="#f63"/></svg>