<svg version="1.0" xmlns="http://www.w3.org/2000/svg" width="682.667" height="682.667" viewBox="0 0 512 512"><g fill="#F53"><path d="M299.5 1.4c-1.1.8-5.8 10-10.4 20.4l-8.4 19.1-18.6 8.2c-10.2 4.5-19.4 9.1-20.3 10.2-2.6 2.8-2.3 7.9.5 10.5 1.3 1.2 2.7 2.2 3.1 2.2s8.5 3.4 18.1 7.6l17.3 7.6 8.3 18.7c4.5 10.2 9.1 19.4 10.2 20.3 2.7 2.5 7.9 2.3 10.3-.3 1-1.1 5.5-10.2 10-20.2l8-18.2 18.5-8.2C364.4 71.1 369 68 369 64s-4.6-7.1-22.9-15.3l-18.5-8.2-8.3-18.5c-4.6-10.2-9.3-19.3-10.5-20.3-2.4-2.1-6.6-2.2-9.3-.3zm9.4 37.9c2.3 5.6 4.9 11.1 5.6 12.2.7 1.2 6.3 4.2 12.9 7 6.4 2.8 11.6 5.2 11.6 5.5s-4.6 2.5-10.3 4.9c-5.6 2.3-11.1 4.9-12.2 5.6-1.2.7-4.2 6.3-7 12.9-2.8 6.4-5.2 11.6-5.5 11.6s-2.7-5.2-5.5-11.6c-2.8-6.6-5.8-12.2-7-12.9-1.1-.7-6.6-3.3-12.2-5.6-5.7-2.4-10.3-4.6-10.3-4.9s5.2-2.7 11.6-5.5c6.6-2.8 12.2-5.8 12.9-7 .7-1.1 3.3-6.6 5.6-12.2 2.4-5.7 4.6-10.3 4.9-10.3s2.5 4.6 4.9 10.3zM466.5 2.5C464.1 4.8 464 5.6 464 16s.1 11.2 2.5 13.5c1.5 1.6 3.6 2.5 5.5 2.5s4-.9 5.5-2.5c2.4-2.3 2.5-3.1 2.5-13.5s-.1-11.2-2.5-13.5C476 .9 473.9 0 472 0s-4 .9-5.5 2.5zM123.2 25.7c-1.1 1-5.1 9-8.8 17.8s-6.8 16.1-6.9 16.3c-.1.1-7.1 1.2-15.6 2.4C74.7 64.7 72 66 72 72.1c0 2.8 1.6 4.9 11.5 14.8L95 98.6l-3.5 17.9c-1.9 9.9-3.5 19-3.5 20.1 0 3.1 3 6.3 6.6 7 2.7.5 4.9-.6 17.3-9 7.8-5.3 14.7-9.9 15.5-10.2.7-.3 7.8 4 15.7 9.5 10 7.1 15.1 10.1 17.1 10.1 3.3 0 7.8-3.9 7.8-6.7 0-1-1.6-10.1-3.5-20.2L161 98.6 172.5 87c11.9-12.1 13.1-14.2 10.5-19-1.7-3.1-3.8-3.8-19.5-6-8.2-1.1-15-2.2-15-2.3-.1-.1-3.2-7.4-6.9-16.2s-7.7-16.8-8.8-17.8c-1.1-.9-3.3-1.7-4.8-1.7s-3.7.8-4.8 1.7zm9.7 37.4c2.4 5.5 5.1 10.4 6 10.8.9.5 5.2 1.4 9.6 2.1 4.4.6 8.6 1.4 9.4 1.6 1 .3-.9 2.8-5.7 7.7-8.3 8.3-8.2 8.2-5.3 23.4 1.1 5.9 1.4 9 .7 8.6-.6-.4-4.5-3.1-8.7-6-5.1-3.5-8.7-5.3-10.6-5.3-2 0-5.8 2-11.6 6-4.8 3.3-8.7 5.4-8.7 4.8 0-.7.9-5.8 1.9-11.2 1.4-6.9 1.7-10.6 1-12.3-.5-1.4-3.7-5.4-7.1-8.9s-5.9-6.6-5.7-6.7c.2-.2 4.1-.9 8.7-1.5 4.5-.6 9.1-1.6 10.1-2.1 1-.6 3.8-5.5 6.2-11S127.7 53 128 53s2.5 4.6 4.9 10.1zm301.6-28.6c-1.6 1.5-2.5 3.6-2.5 5.5s.9 4 2.5 5.5c2.3 2.4 3.1 2.5 13.5 2.5s11.2-.1 13.5-2.5c1.6-1.5 2.5-3.6 2.5-5.5s-.9-4-2.5-5.5c-2.3-2.4-3.1-2.5-13.5-2.5s-11.2.1-13.5 2.5zm48 0c-1.6 1.5-2.5 3.6-2.5 5.5s.9 4 2.5 5.5c2.3 2.4 3.1 2.5 13.5 2.5s11.2-.1 13.5-2.5c1.6-1.5 2.5-3.6 2.5-5.5s-.9-4-2.5-5.5c-2.3-2.4-3.1-2.5-13.5-2.5s-11.2.1-13.5 2.5zm-16 16c-2.4 2.3-2.5 3.1-2.5 13.5s.1 11.2 2.5 13.5c1.5 1.6 3.6 2.5 5.5 2.5s4-.9 5.5-2.5c2.4-2.3 2.5-3.1 2.5-13.5s-.1-11.2-2.5-13.5c-1.5-1.6-3.6-2.5-5.5-2.5s-4 .9-5.5 2.5zm-50.9 55.1c-15 9.9-16.5 11.6-15.2 16.6.3 1.3 8.6 10.3 18.4 20 18.6 18.6 20.1 19.5 25.3 16.8 1.9-1.1 19.9-35.7 19.9-38.4 0-3.8-3.1-6.9-14.3-14.4-13.3-8.8-15.8-10.2-18-10.2-.9 0-8.1 4.3-16.1 9.6zm23.1 12.5c3.5 2.3 6.3 4.5 6.3 5 0 1.5-7 14.9-7.7 14.9-1 0-16.3-15.2-16.3-16.2 0-.7 9.9-7.8 10.9-7.8.3 0 3.3 1.9 6.8 4.1zM219 113.8c-1.9 1.6-2.6 4-4.6 17.8-5.2 36.3-18.4 73.4-39.5 110.8-8.2 14.4-26.9 42-37.3 55.1-10.6 13.1-11.5 15.7-7.1 20 2.3 2.4 5.7 3.1 8.9 1.9 2-.8 15.6-17.5 25.6-31.5 34.9-48.6 57.8-101.8 65-150.5 1.1-7.7 2-15.4 2-17.2 0-6.7-7.9-10.6-13-6.4zm-96.7 40.8c-2.3 2.3-2.5 3-1.9 8.2.3 3.1.9 15.8 1.2 28.2.9 30.5-1.1 54-7.1 83.5-1.4 6.6-2.5 13.1-2.5 14.6 0 5.2 7 8.6 12.2 5.8 2.8-1.5 4.3-5.7 7.2-20.5 5.6-29 7.9-59.9 6.6-88.4-1.2-24.3-1.9-29-4.6-31.7-3.1-3.1-7.8-3-11.1.3zm-70.2 25.8C34.5 185 32 186.5 32 191.9c.1 1.4 4.2 10.7 9.3 20.6 7.7 15 9.7 18.2 12 19 2.2.7 6.5 0 20.5-3.4 18.8-4.7 22.2-6.5 22.2-11.6 0-3.5-17.5-38.2-19.9-39.5-3.1-1.6-6.5-1.1-24 3.4zm23.7 30.1c-.2.2-3.7 1.2-7.9 2.3l-7.6 1.9-4.2-8.5c-2.3-4.6-4.1-8.6-3.9-8.7.2-.2 3.7-1.2 7.8-2.3l7.5-1.9 4.3 8.5c2.4 4.6 4.2 8.5 4 8.7zM387 177.3c-1.9.9-4.5 5.8-11.1 20.6l-8.6 19.5-19.2 8.4c-15.9 7-19.4 9-20.7 11.3-1.6 3.2-1.1 7 1.4 9.2 1 .8 9.8 4.9 19.7 9.2 9.9 4.2 18.5 8.2 19.1 8.9.7.6 4.6 9 8.8 18.6 7.8 17.9 10.6 22 15.1 22 4.3 0 7.1-4.2 15.1-22.7l7.9-18.1 18.4-8.4c10.2-4.5 19.3-9.2 20.3-10.2 2.5-2.7 2.3-7-.4-9.9-1.3-1.4-9.9-5.8-19.8-10.2-9.6-4.2-18-8.1-18.6-8.8-.7-.7-4.6-9.1-8.8-18.7-9.3-21.3-11.9-24.1-18.6-20.7zm9 38.9c2.4 5.7 5.2 11.3 6.2 12.5 1.1 1.2 6.9 4.3 12.9 6.9 6.1 2.6 10.6 5 10.2 5.5-.4.4-5.5 2.8-11.3 5.4s-11 5.1-11.6 5.6c-.7.5-3.3 5.9-5.9 11.9-2.6 6.1-5.1 11-5.5 11-.3 0-2.8-4.9-5.4-10.9-2.7-6.1-5.6-11.6-6.5-12.4s-6.1-3.4-11.6-5.7-10.4-4.5-10.8-4.9c-.4-.5 4.1-2.9 10.2-5.5 6-2.6 11.8-5.7 12.8-6.9 1.1-1.2 3.9-6.8 6.4-12.5 2.4-5.6 4.6-10.2 5-10.2.3 0 2.5 4.6 4.9 10.2zm-75.6-25.8c-20.4 10.2-42.4 25.4-70.1 48.4-23.2 19.4-54.9 49.1-77.7 72.9C162 322.8 160 325.4 160 328c0 4.1 3.9 8 8.1 8 2.7 0 5-1.9 17.9-15.3 8.2-8.4 23.3-23.2 33.7-32.9 48.9-45.7 86.6-74.3 113.7-85.9 8.1-3.5 10.6-5.9 10.6-10.1 0-3.8-4-7.8-7.8-7.8-1.5 0-8.6 2.9-15.8 6.4z"/><path d="M91.1 265.7c-2.2 2-91.1 235-91.1 239.1 0 3 4.3 7.2 7.4 7.2 2.8 0 212-96.2 214.9-98.7 2.5-2.4 2.3-8.5-.5-10.9-1.3-1.1-6.1-3.3-10.8-4.9-36.4-12.2-69.9-32.6-83.9-51.2-12.9-17.2-21-41.2-22.7-67.3-.6-9-1-10.7-3-12.7-2.8-2.8-7.3-3-10.3-.6zm3.8 50.3c4.3 16.6 16.5 38.1 27.9 49.3 15 14.8 40.2 30.7 63.6 40.2l8 3.3-7.5 3.4c-4.1 1.9-19.7 9.2-34.8 16.3l-27.4 12.9-4.4-5c-7.1-8-18.8-26.1-24.2-37.4-8.2-17.5-13.4-35.9-15.6-55.7-.6-5.8-.4-7 5.1-21.7 3.2-8.5 6.1-15.2 6.5-14.8.3.4 1.6 4.5 2.8 9.2zm-22.8 66.3c6.2 20.3 17.2 41.2 30.2 57.4 3.7 4.7 6.6 8.7 6.4 8.9-1.4 1.5-46.2 21.3-46.8 20.7-.3-.5-3.4-12.1-6.8-25.8l-6.2-25 8.6-22.5c4.7-12.4 9-23.6 9.7-25 1-2.3 1.2-2.3 1.5-.5.2 1.1 1.8 6.4 3.4 11.8zm-29.2 78.2c1.8 7.2 3.4 13.7 3.7 14.6.4 1.3-2.2 3-11.2 7.3-6.4 3.1-11.9 5.5-12.1 5.2-.2-.2 3.1-9.6 7.4-20.9 4.3-11.4 8.1-20.3 8.4-19.9s2.1 6.5 3.8 13.7zm258.6-178.9c-16.4 3.5-38.1 12.6-56.3 23.6-11.1 6.7-29.8 20.7-38.4 28.9-5.7 5.4-6.8 6.9-6.8 9.7 0 4.3 3.8 8.2 7.9 8.2 2.3 0 4.7-1.5 9.8-6.1 27.2-24.6 60.2-42.7 89.7-49 6.3-1.4 9.6-2.6 10.9-4 4.1-5 .1-13-6.5-12.8-1.8 0-6.4.7-10.3 1.5zm149.7 44.1c-1.2 1-5.1 9-8.8 17.8s-6.8 16.1-6.9 16.2c0 .1-7.2 1.3-16 2.6-17.4 2.7-19.5 3.7-19.5 10 0 2.5 1.9 4.9 11.5 14.6l11.4 11.6-3.5 18.7c-2.1 10.8-3.4 19.8-3 21.3.9 3.5 6.6 6.3 9.9 4.8 1.3-.6 8.4-5.2 15.6-10.2 7.3-5 13.7-9.1 14.2-9.1.6 0 7 4.2 14.3 9.4 7.4 5.2 14.4 9.7 15.6 10.1 3.1 1 7.6-1.2 9-4.4.9-2.3.5-6.1-2.4-21.7l-3.6-18.8 11.5-11.7c11.7-11.8 12.6-13.4 10.4-18.2-1.6-3.6-4.6-4.6-20.3-6.8-7.7-1.1-14.1-2.1-14.1-2.2-.1-.1-3.2-7.4-6.9-16.2s-7.6-16.8-8.8-17.8c-1.1-.9-3.3-1.7-4.8-1.7s-3.7.8-4.8 1.7zm9.3 36.4c2.1 5 4.9 9.8 6.1 10.8 1.4 1.1 5.8 2.3 11.4 3l9.1 1.3-6.5 6.8c-3.6 3.7-7 7.8-7.5 9.2-.6 1.6-.3 5.6 1.1 12.7 1 5.7 1.7 10.5 1.4 10.8s-4.1-2-8.4-5.1c-5.7-4-8.9-5.6-11.2-5.6s-5.5 1.6-11.2 5.6c-4.3 3.1-8.2 5.4-8.5 5.1s.2-4.6 1.1-9.4c2.5-13.6 2.5-13.6-5-22-3.7-4-6.5-7.5-6.3-7.7s4.2-.9 8.9-1.5c4.7-.7 9.4-1.8 10.5-2.5s3.8-5.7 6-11 4.2-9.6 4.5-9.6 2.3 4.1 4.5 9.1z"/><path d="M325.1 336.1c-33.8 3.6-75.7 18.3-108.3 38.2-9.3 5.7-11 10.6-5.5 15.7 3.2 3 6.2 2.4 15.1-2.9 39.7-23.8 87.7-37.6 124.4-35.7 12.1.6 12.3.6 14.7-1.8 3-3 3.3-7.4.6-10.7-1.3-1.7-3.3-2.5-7.7-3-7.8-1-22.8-.9-33.3.2zM136 344v8h16v-16h-16v8zm40 16v8h16v-16h-16v8zm170.5 42.5c-2.4 2.3-2.5 3.1-2.5 13.5s.1 11.2 2.5 13.5c1.5 1.6 3.6 2.5 5.5 2.5s4-.9 5.5-2.5c2.4-2.3 2.5-3.1 2.5-13.5s-.1-11.2-2.5-13.5c-1.5-1.6-3.6-2.5-5.5-2.5s-4 .9-5.5 2.5zm-32 32c-1.6 1.5-2.5 3.6-2.5 5.5s.9 4 2.5 5.5c2.3 2.4 3.1 2.5 13.5 2.5s11.2-.1 13.5-2.5c1.6-1.5 2.5-3.6 2.5-5.5s-.9-4-2.5-5.5c-2.3-2.4-3.1-2.5-13.5-2.5s-11.2.1-13.5 2.5zm48 0c-1.6 1.5-2.5 3.6-2.5 5.5s.9 4 2.5 5.5c2.3 2.4 3.1 2.5 13.5 2.5s11.2-.1 13.5-2.5c1.6-1.5 2.5-3.6 2.5-5.5s-.9-4-2.5-5.5c-2.3-2.4-3.1-2.5-13.5-2.5s-11.2.1-13.5 2.5zm-120.2 15.8c-14.2 14.2-14.4 13 4 31.4 12 12 14.8 14.3 17.2 14.3 2.1 0 7.3-2.8 17.2-9.5 21.1-14.1 21.1-14.2-3.9-32.9-14-10.5-18.8-13.6-21.2-13.6-2.5 0-4.8 1.8-13.3 10.3zm23.5 15.2 8.3 6.4-3.8 2.5c-2.1 1.4-4.2 2.6-4.8 2.6s-3.9-2.9-7.5-6.5l-6.4-6.5 2.4-2.5c1.3-1.4 2.6-2.5 2.9-2.5s4.3 2.9 8.9 6.5zm80.7-15c-2.4 2.3-2.5 3.1-2.5 13.5s.1 11.2 2.5 13.5c3.2 3.3 7.8 3.3 11 0 2.4-2.3 2.5-3.1 2.5-13.5s-.1-11.2-2.5-13.5c-1.5-1.6-3.6-2.5-5.5-2.5s-4 .9-5.5 2.5z"/></g></svg>