<svg width="21" height="21" viewBox="0 0 21 21" xmlns="http://www.w3.org/2000/svg"><g fill="#B74602"><path d="m11.455 7.881.257.286c.23-.222.464-.445.697-.661l-.251-.292c-.236.219-.473.443-.703.667Zm-5.728 5.696.398.304A55.508 55.508 0 0 1 10.5 9.462l-.36-.343a55.995 55.995 0 0 0-4.413 4.458Z"/><path d="M21 4.519a1.287 1.287 0 0 0-.404-.872l-.712-.69a1.345 1.345 0 0 0-1.856 0l-.766.742-.036-.035a1.105 1.105 0 0 0-1.376-.127l-.002.001-1.356.929a1.912 1.912 0 0 1-1.613.25.281.281 0 0 0-.337.148.272.272 0 0 0 .066.306l.032.032c-.509.43-1.011.87-1.506 1.316l-.836-.81C9.771 5.2 9 5.03 8.285 5.234a1.537 1.537 0 0 1-1.424-.308L2.739 1.39c-.068-.057-.137-.11-.2-.172l-.66-.64a.285.285 0 0 0-.394 0L.08 1.939a.263.263 0 0 0 0 .38l.66.639c.063.06.119.128.177.194l.002.001 3.651 3.99c.346.38.465.895.318 1.38a1.943 1.943 0 0 0 .52 1.976l.907.878a61.133 61.133 0 0 0-3.556 4.398 1.346 1.346 0 0 0 .155 1.773l2.632 2.548a1.455 1.455 0 0 0 1.834.149 62.577 62.577 0 0 0 4.54-3.442l3.055 2.958c.173.168.403.277.648.291a.992.992 0 0 0 .752-.276l3.533-3.42a.926.926 0 0 0 0-1.34l-2.972-2.877c.462-.48.914-.966 1.36-1.459l.037.037a.283.283 0 0 0 .357.03.273.273 0 0 0 .104-.308 1.755 1.755 0 0 1 .26-1.55l.96-1.315.002-.002a1.02 1.02 0 0 0-.13-1.331l-.037-.036.766-.741c.259-.251.396-.588.383-.944ZM1.681 1.15l.467.453-1.01.978-.467-.453 1.011-.978ZM1.51 2.985l1.056-1.023 3.926 3.367a2.103 2.103 0 0 0 1.95.421 1.54 1.54 0 0 1 1.491.369l.366.354H4.701L1.51 2.985Zm4.293 7.132a1.42 1.42 0 0 1-.38-1.444 1.931 1.931 0 0 0-.257-1.662h5.43a61.854 61.854 0 0 0-3.915 3.957l-.878-.85Zm13.712 5.279a.4.4 0 0 1 0 .578l-3.533 3.42a.427.427 0 0 1-.298.12.427.427 0 0 1-.299-.12l-3.043-2.946a62.105 62.105 0 0 0 4.214-3.918l2.96 2.866ZM7.058 19.804a.888.888 0 0 1-1.118-.09l-2.631-2.548a.82.82 0 0 1-.094-1.082 61.108 61.108 0 0 1 9.82-10.499l4.867 4.712a61.695 61.695 0 0 1-10.844 9.507Zm12.5-12.538-.957 1.311c-.262.358-.41.781-.436 1.213l-4.607-4.46a2.469 2.469 0 0 0 1.255-.423l1.353-.926a.552.552 0 0 1 .672.069l2.65 2.566a.51.51 0 0 1 .07.65ZM17.657 4.08l.376-.364 1.8 1.743-.376.364-1.8-1.743Zm2.57.998-1.8-1.743a.774.774 0 0 1 1.065.004l.731.708a.716.716 0 0 1 .004 1.03Z"/><path d="M18.551 15.646a.316.316 0 0 0 .447-.446l-2.231-2.227a.317.317 0 0 0-.447 0 .315.315 0 0 0 0 .446l2.231 2.227ZM3.38 3.441a.302.302 0 0 0-.434.017.32.32 0 0 0 .016.445l.34.323a.302.302 0 0 0 .434-.017.32.32 0 0 0-.016-.445l-.34-.323Zm1.1 1.772a.17.17 0 0 0 .246-.01.189.189 0 0 0-.01-.257l-.605-.588a.17.17 0 0 0-.246.01.189.189 0 0 0 .009.258l.606.587Z"/></g></svg>