<svg width="79" height="174" viewBox="0 0 79 174" xmlns="http://www.w3.org/2000/svg"><g fill="none"><path d="M73.344 57.897C69.324 39.137 79 7.774 79 7.774L51.096 4.068l-2.725-.362L20.467 0s1.09 32.793-7.723 49.849c-8.454 16.362-29.148 59.213 19.444 70.034l-5.575 41.66c-14.46-1.666-26.242-.247-26.604 2.455-.378 2.825 11.763 6.768 27.118 8.808 15.355 2.04 28.11 1.402 28.487-1.423.362-2.702-10.636-7.146-25.03-9.313l5.576-41.659c49.741 2.239 41.04-44.517 37.184-62.514Z" fill="#FA6634"/><path d="M55.614 171.383c.362-2.702-10.636-7.146-25.03-9.313l5.576-41.659c16.538.744 26.61-3.93 32.553-11.16-12.877-.866-26.04-.88-35.316-9.147-9.249-8.243-11.066-21.969-10.288-34.307 1.004-15.92 5.273-31.427 8.516-47.048 1.14-5.493 2.16-11.138 1.307-16.682-.021-.14-.05-.281-.075-.422L20.467 0s1.09 32.793-7.723 49.849c-8.455 16.362-29.149 59.213 19.444 70.034l-5.575 41.66c-14.46-1.666-26.243-.247-26.604 2.455-.379 2.825 11.763 6.768 27.118 8.808 15.355 2.04 28.11 1.402 28.487-1.423Z" opacity=".1" fill="#32150B"/><path d="M26.953 70.688c.338.045.93-2.302 1.324-5.242.393-2.94.438-5.36.1-5.405-.337-.045-.93 2.302-1.324 5.242-.393 2.94-.438 5.36-.1 5.405Zm26.668 3.542c.338.045.93-2.302 1.324-5.243.394-2.94.439-5.36.101-5.405-.338-.045-.93 2.302-1.324 5.243-.394 2.94-.439 5.36-.101 5.405Zm-19.855-.895c.204.022.253-1.295 1.296-2.952.524-.81 1.304-1.69 2.38-2.329 1.063-.646 2.448-.994 3.89-.907 1.443.098 2.771.62 3.742 1.396.986.772 1.646 1.743 2.061 2.614.822 1.777.7 3.089.906 3.093.074.008.206-.303.257-.901.051-.595-.005-1.481-.353-2.515a7.415 7.415 0 0 0-2.147-3.164c-1.112-.976-2.687-1.637-4.386-1.75-1.7-.105-3.347.35-4.576 1.176a7.424 7.424 0 0 0-2.535 2.863c-.478.981-.648 1.853-.674 2.45-.027.598.064.924.14.926Z" fill="#242438"/></g></svg>