<svg xmlns="http://www.w3.org/2000/svg" width="512" height="512" viewBox="0 0 512 512" xml:space="preserve"><g/><path d="M255.994 114.677C132.724 114.677 32 256 32 256s100.724 141.289 223.994 141.289S480 256 480 256 379.265 114.677 255.994 114.677zM256 344.686c-48.997 0-88.708-39.726-88.708-88.709 0-48.986 39.711-88.697 88.708-88.697 48.985 0 88.708 39.711 88.708 88.697 0 48.983-39.722 88.709-88.708 88.709z"/><path d="M256 211.375c-24.635 0-44.614 19.966-44.614 44.602 0 24.672 19.979 44.613 44.614 44.613 24.647 0 44.613-19.94 44.613-44.613.001-24.636-19.965-44.602-44.613-44.602z"/></svg>