<svg width="167" height="168" viewBox="0 0 167 168" xmlns="http://www.w3.org/2000/svg"><path d="M91.026 159.398c.129-.878-.26-1.568-1.743-3.052-1.681-1.68-2.634-2.13-3.468-1.624-.817.492-1.16 1.29-.922 2.098.3.972 2.91 3.614 3.899 3.899 1.02.316 2.088-.294 2.234-1.321Zm49.75-53.666c.038-.298-.282-1.054-.8-1.875-.988-1.524-1.173-2.513-.96-4.816.334-3.725-.667-6.639-2.94-8.476-1.734-1.398-3.366-1.823-6.824-1.758-1.654.057-3.406-.051-3.884-.194-1.038-.3-2.572-1.766-2.856-2.689-.11-.346-.186-2.097-.194-3.917.009-4.252-.386-5.552-2.376-7.542-1.99-1.99-3.29-2.386-7.542-2.376-1.819-.008-3.57-.083-3.917-.194-.922-.285-2.39-1.819-2.689-2.858-.143-.476-.234-2.212-.195-3.883.082-3.507-.342-5.105-1.805-6.905-1.904-2.272-4.34-3.098-8.529-2.825-2.466.15-3.175.01-4.732-1.009-.82-.518-1.56-.822-1.859-.785-.828.144-1.468.946-1.481 1.906-.011.795.07.909 1.068 1.704 1.75 1.416 3.3 1.792 7.12 1.755 3.044-.042 3.522 0 4.391.567a4.647 4.647 0 0 1 1.615 1.615c.551.852.643 1.413.652 4.241.009 1.82.082 3.671.159 4.117.244 1.453 1.36 3.239 2.635 4.313 1.816 1.48 3.348 1.905 6.988 1.854 1.753-.024 3.505.051 3.9.178.973.3 2.506 1.834 2.806 2.806.127.428.217 2.197.193 3.917-.05 3.606.36 5.155 1.84 6.97 1.008 1.21 2.762 2.327 4.13 2.621.38.078 2.231.152 4.133.175 2.993.009 3.538.083 4.406.65a4.652 4.652 0 0 1 1.615 1.615c.567.868.627 1.33.577 3.829-.085 3.705.065 4.729.887 6.322.87 1.676 1.554 2.36 2.53 2.463.858.087 1.778-.637 1.939-1.515Zm-40.978 40.164c.37-.535.474-7.979.136-8.586-.647-1.083-2.402-.992-3.096.192-.407.667-.422 7.762-.001 8.484.58.984 2.284.944 2.96-.09Zm-8.678 2.023c.395-1.081-.433-2.178-1.69-2.227-.463-.026-.847.26-2.541 1.954-1.76 1.761-1.98 2.045-1.988 2.64-.014.993.901 1.807 1.878 1.679.68-.093 1.014-.33 2.473-1.821.923-.923 1.78-1.943 1.868-2.225Zm-8.903 8.607c.13-.978-.684-1.893-1.677-1.879-.596.009-.88.228-2.64 1.989-1.695 1.694-1.98 2.079-1.955 2.541.049 1.29 1.162 2.101 2.293 1.656.316-.12 1.32-.962 2.225-1.868 1.409-1.408 1.663-1.76 1.755-2.439Zm41.905-47.188c.69-1.995-2.403-3.21-3.225-1.245-.273.631-.106 1.605.368 2.079.31.31 1.7.323 2.216.034.233-.135.52-.52.64-.868Zm-41.925 41.598c.36-1.046.006-1.704-1.854-3.464-2.009-1.907-2.635-2.063-3.658-1.04-1.073 1.073-.883 1.633 1.287 3.803 1.63 1.63 1.926 1.858 2.505 1.834.91-.03 1.477-.401 1.719-1.132Zm24.922-32.034c1.535-3.428-.041-7.723-3.459-9.363-1.413-.675-4.076-.721-5.672-.104-1.895.755-3.624 2.55-4.312 4.444-.55 1.562-.526 3.297.063 5.026.507 1.548 2.35 3.425 3.914 3.981 1.53.558 3.515.596 5.01.08 1.778-.604 3.705-2.335 4.456-4.064Zm-5.533.64c-1.33.48-2.666.218-3.596-.712-.88-.88-1.185-1.622-1.136-2.747.133-2.45 2.489-4.119 4.777-3.407 2.059.65 3.055 2.753 2.266 4.782-.412 1.03-1.098 1.652-2.312 2.082Zm45.75-41.869c.308-.831-.095-1.57-1.694-3.168-2.12-2.12-3.34-2.336-4.288-.767-.542.9-.043 1.87 1.851 3.628 1.6 1.5 1.715 1.58 2.542 1.503.928-.08 1.312-.365 1.589-1.196Zm.16-11.58c.206-.531-.029-1.504-.436-1.911-.114-.115-.558-.258-1.005-.3-.743-.074-.81-.039-2.771 1.922-1.779 1.779-1.997 2.062-2.007 2.658-.013.993.902 1.807 1.88 1.678.679-.092 1.013-.328 2.473-1.821.922-.922 1.78-1.942 1.866-2.225Zm-8.901 8.609c.13-.978-.685-1.893-1.678-1.879-.596.009-.88.227-2.64 1.989-2.181 2.18-2.318 2.48-1.623 3.644.26.46.522.556 1.333.56.992-.013 1.026-.047 2.753-1.775 1.509-1.509 1.762-1.86 1.855-2.539ZM78.3 128.96c-.043-.445-.3-1.004-.561-1.265-.881-.881-1.144-2.151-1.146-5.64-.021-4.384-.388-5.42-2.723-7.554-2.025-1.825-2.899-2.093-7.066-2.07-3.341.014-4.594-.266-5.54-1.212-1.256-1.256-1.46-2.096-1.38-5.438.092-4.236-.352-5.685-2.375-7.708-2.022-2.022-3.47-2.465-7.706-2.373-3.343.08-4.183-.124-5.44-1.38-.946-.947-1.226-2.2-1.212-5.54.021-3.904-.277-5.041-1.759-6.757-.977-1.112-1.157-1.224-1.818-1.183-1.491.054-2.207 1.619-1.331 2.83 1.33 1.834 1.44 2.247 1.362 5.522-.044 2.002.081 3.738.333 4.594.38 1.251.558 1.53 2.043 3.015 2.202 2.201 3.025 2.487 7.292 2.462 3.787-.003 4.562.168 5.72 1.326 1.159 1.158 1.33 1.933 1.327 5.72-.025 4.269.26 5.091 2.463 7.293 1.485 1.485 1.762 1.663 3.014 2.043.857.252 2.526.377 4.428.335 3.26-.095 4.314.155 5.489 1.33 1.158 1.158 1.393 2.13 1.3 5.257-.148 3.542.321 5.42 1.737 7.105.863.996 1.043 1.11 1.737 1.133 1.109.034 1.93-.82 1.812-1.845Zm60.416-60.577c-.026-.563-.286-.922-1.885-2.521-1.68-1.68-1.909-1.843-2.57-1.834a1.826 1.826 0 0 0-1.778 1.778c-.01.662.153.89 1.833 2.57 2.17 2.171 2.73 2.363 3.804 1.289.419-.42.606-.836.596-1.282Zm-70.03 62.2c.129-.978-.685-1.893-1.679-1.88-.992.014-1.831.953-1.73 1.927.118 1.056.543 1.415 1.684 1.415 1.142-.032 1.577-.402 1.724-1.462Zm23.472-30.064c.104-.331.079-.894-.082-1.222-.53-1.167-1.191-1.191-5.058-.26-1.99.49-3.752 1.01-3.902 1.161-.168.168-.34.634-.395 1.081-.13.944.798 2.04 1.66 1.961 1.043-.096 6.652-1.498 7.102-1.785.268-.17.555-.587.675-.936Zm8.06-11.06c-.024-.695-.137-.875-1.15-1.754-1.668-1.4-3.02-1.744-6.972-1.772-3.704-.015-4.264-.14-5.39-1.265-1.158-1.158-1.425-2.23-1.331-5.489.06-1.887-.065-3.555-.318-4.412-.38-1.25-.558-1.53-2.042-3.014-2.203-2.202-3.371-2.6-7.408-2.477-3.178.11-4.464-.203-5.573-1.28-1.125-1.125-1.376-2.18-1.374-5.868.01-4.317-.388-5.42-2.641-7.472-2.026-1.824-3.328-2.187-7.298-2.098-3.21.077-4.281-.156-5.277-1.152-1.157-1.157-3.219-.434-3.24 1.121-.012.893 1.357 2.263 3.05 3.017 1.02.45 1.977.568 4.772.579 3.556 0 4.76.265 5.705 1.21 1.224 1.224 1.428 2.032 1.366 5.357-.029 1.985.095 3.786.349 4.61.363 1.268.557 1.53 2.123 3.096 1.566 1.566 1.828 1.76 3.048 2.108.807.236 2.592.378 4.427.335 3.26-.094 4.364.172 5.457 1.264 1.093 1.093 1.343 2.182 1.341 5.836-.01 4.283.389 5.42 2.642 7.473 1.943 1.808 3.08 2.14 7 2.135 3.92-.005 4.15.025 5.312.952 1.653 1.283 3.463.746 3.422-1.04Zm12.972-31.44c.074-.563-.053-.925-.46-1.333-1.126-1.125-2.89-.34-2.895 1.298-.035 1.273.864 1.94 2.062 1.525.946-.294 1.165-.545 1.293-1.49Zm4.042-8.739c.022-.447-.168-1.006-.396-1.235-.571-.57-1.928-.519-2.532.085-1.09 1.09-.174 3.078 1.333 2.876 1.044-.13 1.581-.732 1.595-1.726Zm-7.742 1.283c.08-.961-.457-1.632-1.495-1.832-.53-.092-.828.011-1.331.514-.704.705-.78 1.4-.264 2.287.259.46.523.555 1.332.56 1.191-.017 1.66-.42 1.758-1.53ZM70.584 88c.013-.992-.02-1.025-1.7-2.705-1.468-1.468-1.812-1.711-2.49-1.785-.56-.058-.927.08-1.346.499-1.124 1.123-.547 2.538 1.92 4.67 1.341 1.14 2 1.295 3.018.669.467-.27.57-.537.598-1.348ZM46.54 104.312c.303-1.576-1.8-2.572-2.973-1.398-.873.873-.628 2.358.473 2.789 1.135.464 2.268-.18 2.5-1.39Zm24.113-27.31c.104-.332.129-.911.035-1.274-.22-.857-1.305-1.339-2.186-1.012-.815.326-3.633 3.176-3.892 3.957-.448 1.297.84 2.585 2.153 2.153.914-.292 3.58-2.926 3.89-3.824Zm-8.958 9.154c.546-1.231-.36-2.674-1.619-2.59-.563.04-.93.31-2.574 1.955-1.727 1.727-1.895 1.96-1.905 2.622a1.707 1.707 0 0 0 1.729 1.73c.628-.009.912-.195 2.47-1.689.957-.923 1.83-1.828 1.899-2.028Zm.212-6.999c.027-.744-.086-.924-1.603-2.441-1.795-1.795-2.501-2.166-3.398-1.822-.849.326-1.05.594-1.129 1.52-.06.712.085.99 1.013 2.054 1.367 1.602 2.643 2.544 3.47 2.532.894-.012 1.65-.867 1.647-1.843Zm40.814-44.923c.545-1.166.22-1.592-2.972-3.913-2.374-1.737-3.014-2.108-3.626-2.083-1.539.006-2.26 1.867-1.166 2.96.603.604 4.828 3.655 5.567 4.025.312.177 1.722-.09 1.874-.341.033-.033.17-.332.323-.648Zm-16.524 10.78c.631-1.281.765-3.864.308-5.428-.539-1.713-2.413-3.688-4.093-4.294-4.953-1.767-10.215 2.06-9.94 7.268.293 6.297 7.796 9.037 12.242 4.46.57-.571 1.245-1.472 1.483-2.006Zm-5.963.646c-.978.162-2.608-.295-3.278-.93-.652-.653-1.123-2.433-.896-3.345.42-1.66 1.743-2.787 3.381-2.893 2.103-.145 3.656 1.14 3.859 3.189.207 1.782-1.242 3.656-3.065 3.978ZM34.258 96.693c1.684-2.14 1.909-2.856 1.127-3.638-.637-.636-1.362-.825-2.011-.535-.316.154-1.375 1.342-2.79 3.115-2.019 2.51-2.29 2.943-2.231 3.539.07.875.837 1.608 1.665 1.597.794-.012 1.816-1.001 4.24-4.078Zm32.524-50.632c.291-.648-.954-7.429-1.46-7.935-.555-.554-1.314-.709-1.946-.402-1.198.545-1.256 1.125-.533 5.002.385 2.029.84 3.825 1.004 3.988.375.375 1.729.456 2.28.101a1.85 1.85 0 0 0 .655-.754ZM36.39 68.233c-.022-.761-.624-1.497-1.334-1.57-1.816-.206-2.853 1.744-1.597 3 1.011 1.011 2.96.074 2.931-1.43ZM22.196 81.545c1.037-1.982 1.202-4.333.47-6.341-.286-.824-.709-1.445-1.606-2.343-2.022-2.022-4.66-2.581-7.42-1.617-1.197.414-1.614.701-2.738 1.858-1.107 1.106-1.41 1.574-1.773 2.621-1.571 4.801 1.737 9.52 6.684 9.467 1.9-.01 3.381-.61 4.872-1.97.67-.605 1.358-1.359 1.512-1.675Zm-5.173-.143c-1.214.397-2.962.058-3.762-.742-1.37-1.37-1.163-4.284.39-5.446 3.042-2.26 6.909.4 5.685 3.907-.464 1.345-.95 1.8-2.314 2.282Zm62.035-64.157c-.065-1.306-1.178-2.117-2.308-1.671-.849.325-1.051.594-1.13 1.52-.08 1.06.75 1.958 1.728 1.829.827-.078 1.733-.984 1.71-1.678Z" fill="#F53"/></svg>