<svg width="167" height="168" viewBox="0 0 167 168" xmlns="http://www.w3.org/2000/svg"><path d="M158.837 76.413c-.878-.129-1.567.26-3.052 1.743-1.68 1.681-2.13 2.634-1.623 3.468.491.817 1.29 1.159 2.097.922.972-.3 3.615-2.91 3.9-3.899.316-1.02-.294-2.088-1.322-2.234Zm-53.666-49.75c-.298-.038-1.054.282-1.874.8-1.525.988-2.514 1.173-4.816.96-3.726-.334-6.64.667-8.477 2.94-1.398 1.734-1.822 3.366-1.757 6.824.056 1.654-.052 3.406-.195 3.884-.3 1.038-1.766 2.572-2.688 2.856-.347.11-2.098.186-3.917.194-4.252-.01-5.553.386-7.542 2.376-1.991 1.99-2.386 3.29-2.376 7.542-.009 1.819-.084 3.57-.194 3.917-.286.922-1.82 2.39-2.858 2.689-.477.143-2.213.234-3.884.195-3.507-.082-5.105.342-6.905 1.805-2.271 1.904-3.098 4.34-2.824 8.529.15 2.466.01 3.175-1.01 4.732-.518.82-.822 1.56-.784 1.859.143.828.945 1.468 1.905 1.48.795.012.909-.07 1.704-1.067 1.417-1.75 1.792-3.3 1.755-7.12-.042-3.044.001-3.522.568-4.391a4.647 4.647 0 0 1 1.615-1.616c.852-.55 1.412-.642 4.24-.651 1.82-.009 3.671-.082 4.118-.159 1.452-.245 3.238-1.36 4.312-2.635 1.48-1.816 1.905-3.348 1.854-6.988-.024-1.754.052-3.505.178-3.9.301-.973 1.834-2.506 2.806-2.806.428-.127 2.197-.217 3.917-.193 3.606.05 5.155-.36 6.971-1.84 1.21-1.008 2.326-2.762 2.62-4.13.079-.38.153-2.231.175-4.133.009-2.993.083-3.538.65-4.406a4.652 4.652 0 0 1 1.615-1.615c.869-.567 1.331-.627 3.83-.577 3.705.085 4.728-.065 6.322-.887 1.675-.87 2.36-1.554 2.462-2.53.087-.858-.637-1.778-1.515-1.939Zm40.164 40.978c-.535-.37-7.978-.474-8.586-.136-1.082.647-.992 2.402.193 3.096.666.407 7.762.422 8.484.001.984-.58.944-2.284-.091-2.961Zm2.023 8.678c-1.081-.395-2.178.433-2.227 1.69-.026.463.26.847 1.955 2.541 1.76 1.76 2.045 1.98 2.64 1.988.992.014 1.807-.901 1.678-1.878-.093-.68-.33-1.014-1.82-2.473-.923-.923-1.944-1.78-2.226-1.868Zm8.607 8.903c-.977-.13-1.892.684-1.878 1.677.008.595.228.88 1.988 2.64 1.695 1.695 2.08 1.98 2.542 1.955 1.289-.049 2.1-1.162 1.655-2.293-.12-.316-.962-1.32-1.868-2.226-1.408-1.408-1.76-1.662-2.438-1.754Zm-47.188-41.905c-1.995-.69-3.209 2.403-1.245 3.225.632.273 1.606.106 2.08-.368.309-.31.322-1.7.033-2.216-.134-.233-.52-.52-.868-.64Zm41.598 41.925c-1.046-.361-1.703-.006-3.463 1.854-1.908 2.009-2.063 2.635-1.041 3.658 1.073 1.073 1.633.883 3.804-1.287 1.63-1.63 1.858-1.926 1.833-2.505-.029-.91-.4-1.477-1.132-1.719ZM118.341 60.32c-3.428-1.535-7.723.041-9.363 3.459-.675 1.413-.72 4.076-.104 5.672.755 1.895 2.55 3.623 4.444 4.311 1.562.551 3.298.527 5.026-.062 1.549-.507 3.425-2.35 3.982-3.914.558-1.53.596-3.515.08-5.01-.604-1.779-2.335-3.705-4.065-4.456Zm.64 5.533c.48 1.33.219 2.666-.712 3.596-.88.88-1.621 1.185-2.746 1.136-2.45-.133-4.12-2.489-3.407-4.777.65-2.059 2.752-3.055 4.781-2.266 1.031.411 1.653 1.098 2.083 2.311Zm-41.868-45.75c-.832-.308-1.57.095-3.169 1.693-2.12 2.121-2.335 3.342-.767 4.29.9.541 1.87.042 3.629-1.852 1.5-1.6 1.58-1.715 1.502-2.542-.079-.928-.364-1.313-1.195-1.589Zm-11.58-.16c-.532-.206-1.505.028-1.912.436-.114.114-.257.558-.3 1.005-.073.743-.039.81 1.923 2.771 1.778 1.779 2.062 1.997 2.658 2.006.992.014 1.807-.901 1.677-1.879-.092-.679-.328-1.013-1.82-2.473-.923-.922-1.943-1.78-2.226-1.866Zm8.608 8.901c-.978-.13-1.893.685-1.878 1.678.008.596.227.88 1.988 2.64 2.18 2.181 2.48 2.318 3.644 1.623.46-.26.556-.522.56-1.333-.013-.992-.047-1.026-1.774-2.753-1.51-1.509-1.86-1.762-2.54-1.855ZM128.4 89.14c-.446.043-1.005.3-1.266.561-.881.881-2.15 1.144-5.64 1.145-4.383.022-5.42.389-7.554 2.724-1.824 2.025-2.093 2.899-2.069 7.066.014 3.341-.266 4.594-1.212 5.54-1.256 1.256-2.096 1.46-5.439 1.38-4.235-.092-5.684.352-7.707 2.375-2.023 2.022-2.466 3.47-2.374 7.706.08 3.343-.124 4.183-1.38 5.44-.946.946-2.2 1.226-5.54 1.212-3.904-.021-5.04.277-6.757 1.759-1.111.977-1.224 1.157-1.182 1.818.054 1.49 1.618 2.207 2.83 1.331 1.834-1.33 2.247-1.441 5.521-1.362 2.002.044 3.738-.081 4.595-.334 1.25-.38 1.529-.557 3.014-2.042 2.202-2.202 2.487-3.025 2.462-7.292-.003-3.787.168-4.562 1.327-5.72 1.158-1.159 1.933-1.33 5.72-1.327 4.268.025 5.09-.261 7.292-2.463 1.485-1.485 1.664-1.762 2.043-3.014.253-.857.378-2.526.335-4.428-.094-3.26.155-4.314 1.33-5.489 1.158-1.158 2.13-1.393 5.257-1.3 3.543.148 5.42-.321 7.105-1.737.996-.863 1.11-1.044 1.134-1.737.034-1.109-.821-1.93-1.845-1.812ZM67.822 28.723c-.563.026-.922.286-2.52 1.885-1.68 1.68-1.844 1.909-1.834 2.57a1.826 1.826 0 0 0 1.777 1.778c.662.01.891-.153 2.571-1.833 2.17-2.17 2.362-2.73 1.288-3.804-.42-.419-.836-.606-1.282-.596Zm62.2 70.03c-.978-.129-1.892.685-1.879 1.679.014.992.952 1.831 1.926 1.73 1.057-.118 1.415-.543 1.415-1.684-.032-1.142-.401-1.577-1.462-1.724ZM99.959 75.282c-.332-.104-.895-.079-1.223.082-1.167.53-1.19 1.191-.26 5.058.49 1.99 1.01 3.751 1.162 3.902.167.168.633.34 1.08.395.945.13 2.04-.798 1.962-1.66-.097-1.043-1.498-6.652-1.786-7.102-.169-.268-.586-.555-.935-.675Zm-11.061-8.06c-.694.024-.875.136-1.754 1.15-1.399 1.668-1.744 3.02-1.772 6.972-.014 3.704-.139 4.264-1.265 5.39-1.158 1.158-2.23 1.425-5.488 1.33-1.887-.06-3.556.066-4.413.32-1.25.379-1.529.557-3.013 2.041-2.203 2.203-2.6 3.371-2.478 7.408.11 3.178-.203 4.464-1.28 5.573-1.125 1.125-2.18 1.376-5.867 1.373-4.318-.01-5.42.389-7.473 2.642-1.824 2.026-2.186 3.328-2.098 7.298.077 3.21-.156 4.281-1.151 5.277-1.158 1.157-.434 3.218 1.12 3.24.894.012 2.263-1.357 3.017-3.05.45-1.02.569-1.977.58-4.772 0-3.556.264-4.76 1.21-5.705 1.224-1.224 2.031-1.428 5.356-1.366 1.986.029 3.787-.095 4.61-.349 1.268-.363 1.53-.557 3.096-2.123 1.566-1.566 1.76-1.828 2.108-3.048.237-.807.378-2.592.336-4.427-.095-3.26.171-4.365 1.263-5.457 1.094-1.093 2.182-1.343 5.836-1.341 4.284.01 5.42-.389 7.473-2.642 1.809-1.943 2.14-3.08 2.135-7-.005-3.92.025-4.15.952-5.312 1.284-1.653.746-3.463-1.04-3.422Zm-31.44-12.973c-.562-.073-.925.053-1.332.46-1.126 1.126-.34 2.89 1.297 2.896 1.274.035 1.94-.864 1.526-2.062-.295-.946-.546-1.165-1.49-1.294Zm-8.739-4.04c-.446-.023-1.006.167-1.234.395-.57.57-.52 1.928.085 2.532 1.09 1.09 3.078.174 2.876-1.333-.13-1.044-.733-1.581-1.727-1.595Zm1.283 7.74c-.96-.08-1.631.458-1.832 1.496-.092.53.011.828.515 1.331.704.704 1.4.78 2.286.264.46-.259.555-.523.56-1.332-.017-1.191-.42-1.66-1.529-1.758Zm37.439 38.907c-.992-.013-1.026.02-2.706 1.7-1.468 1.468-1.71 1.812-1.784 2.49-.058.56.079.927.498 1.346 1.124 1.124 2.539.547 4.67-1.92 1.14-1.341 1.295-2 .67-3.018-.271-.467-.538-.57-1.348-.598Zm16.31 24.044c-1.576-.303-2.571 1.8-1.397 2.973.872.873 2.357.628 2.788-.473.464-1.135-.18-2.268-1.39-2.5Zm-27.31-24.113c-.332-.104-.91-.129-1.274-.035-.857.22-1.338 1.305-1.011 2.186.326.815 3.176 3.633 3.957 3.892 1.296.448 2.585-.84 2.153-2.153-.293-.914-2.927-3.58-3.825-3.89Zm9.155 8.958c-1.232-.546-2.674.36-2.59 1.619.04.563.31.93 1.954 2.574 1.728 1.727 1.96 1.895 2.623 1.905a1.707 1.707 0 0 0 1.729-1.729c-.008-.628-.195-.912-1.688-2.47-.924-.957-1.829-1.83-2.028-1.899Zm-7-.212c-.744-.028-.924.086-2.44 1.603-1.795 1.795-2.167 2.501-1.822 3.398.325.849.593 1.05 1.52 1.129.711.06.99-.085 2.053-1.013 1.603-1.367 2.544-2.643 2.533-3.47-.012-.894-.868-1.65-1.843-1.647ZM33.674 64.718c-1.166-.545-1.592-.22-3.912 2.972-1.737 2.374-2.109 3.014-2.084 3.626.006 1.539 1.868 2.26 2.961 1.166.603-.603 3.654-4.828 4.024-5.567.178-.312-.09-1.722-.34-1.874-.034-.033-.333-.17-.649-.323Zm10.78 16.524c-1.28-.631-3.863-.766-5.428-.308-1.713.539-3.688 2.413-4.293 4.093-1.768 4.953 2.06 10.215 7.267 9.94 6.297-.293 9.037-7.796 4.46-12.242-.57-.57-1.472-1.245-2.005-1.483Zm.646 5.963c.162.978-.295 2.608-.93 3.278-.653.652-2.432 1.123-3.345.896-1.66-.42-2.787-1.743-2.892-3.381-.146-2.103 1.14-3.656 3.188-3.859 1.783-.207 3.656 1.242 3.978 3.065Zm51.033 45.976c-2.14-1.684-2.856-1.909-3.638-1.127-.636.637-.824 1.362-.534 2.011.153.316 1.342 1.375 3.115 2.79 2.51 2.019 2.943 2.29 3.538 2.231.875-.07 1.609-.838 1.597-1.665-.012-.794-1.001-1.816-4.078-4.24Zm-50.631-32.524c-.649-.291-7.43.954-7.935 1.46-.555.555-.71 1.314-.403 1.946.545 1.198 1.125 1.256 5.002.533 2.029-.386 3.825-.84 3.988-1.004.375-.375.456-1.73.102-2.28a1.85 1.85 0 0 0-.754-.655Zm22.171 30.392c-.76.022-1.497.624-1.569 1.334-.206 1.816 1.743 2.853 3 1.597 1.01-1.011.074-2.96-1.43-2.931Zm13.313 14.193c-1.983-1.036-4.334-1.2-6.342-.469-.823.286-1.445.708-2.342 1.606-2.023 2.022-2.582 4.66-1.617 7.42.413 1.197.7 1.614 1.857 2.738 1.107 1.107 1.574 1.41 2.621 1.773 4.802 1.571 9.52-1.737 9.467-6.684-.01-1.9-.61-3.381-1.97-4.872-.604-.67-1.358-1.358-1.675-1.512Zm-.144 5.174c.398 1.214.058 2.962-.742 3.761-1.37 1.37-4.283 1.164-5.446-.39-2.259-3.041.4-6.908 3.907-5.684 1.346.464 1.8.95 2.282 2.314ZM16.685 88.381c-1.306.065-2.117 1.178-1.672 2.308.325.849.594 1.051 1.521 1.13 1.06.08 1.957-.75 1.828-1.728-.078-.827-.984-1.733-1.677-1.71Z" fill="#F53"/></svg>