<svg width="31" height="33" viewBox="0 0 31 33" xmlns="http://www.w3.org/2000/svg"><defs><filter x="-2.9%" y="-4.3%" width="105.8%" height="108.5%" filterUnits="objectBoundingBox" id="a"><feOffset dy="2" in="SourceAlpha" result="shadowOffsetOuter1"/><feGaussianBlur stdDeviation="2" in="shadowOffsetOuter1" result="shadowBlurOuter1"/><feColorMatrix values="0 0 0 0 0.807180653 0 0 0 0 0.807180653 0 0 0 0 0.807180653 0 0 0 0.5 0" in="shadowBlurOuter1" result="shadowMatrixOuter1"/><feMerge><feMergeNode in="shadowMatrixOuter1"/><feMergeNode in="SourceGraphic"/></feMerge></filter></defs><g filter="url(#a)" transform="translate(-113 -113)" fill="#F63"><path d="M128.114 122.5a6.114 6.114 0 0 0-2.944 11.473l-.072 2.527 2.885-1.778c.043 0 .087.007.131.007a6.114 6.114 0 1 0 0-12.229Zm.78 9.677h-1.569v-5.043h1.567v5.043Zm-.795-5.66c-.495 0-.825-.352-.814-.785-.01-.454.319-.795.825-.795.505 0 .826.341.836.795 0 .433-.332.784-.847.784Z"/></g></svg>