<svg width="16" height="16" viewBox="0 0 16 16" fill="none" xmlns="http://www.w3.org/2000/svg"><path fill-rule="evenodd" clip-rule="evenodd" d="M8 1.032c3.826 0 6.968 3.1 6.968 6.968A6.966 6.966 0 0 1 8 14.968 6.966 6.966 0 0 1 1.032 8 6.967 6.967 0 0 1 8 1.032ZM8 0a8.001 8.001 0 0 0 0 16A8.001 8.001 0 0 0 8 0ZM6.839 11.097h.387V7.226h-.387a.387.387 0 0 1-.387-.387V6.58c0-.214.173-.387.387-.387h1.548c.214 0 .387.173.387.387v4.516h.387c.214 0 .387.173.387.387v.258a.387.387 0 0 1-.387.387H6.84a.387.387 0 0 1-.387-.387v-.258c0-.214.173-.387.387-.387ZM8 3.355a1.032 1.032 0 1 0 0 2.064 1.032 1.032 0 0 0 0-2.064Z" fill="#F63"/></svg>