<svg width="16" height="16" viewBox="0 0 16 16" xmlns="http://www.w3.org/2000/svg"><path d="M8 .5C5.963.5 5.708.509 4.908.545 2.184.67.671 2.181.546 4.907.509 5.708.5 5.963.5 8s.009 2.293.045 3.092c.125 2.724 1.636 4.238 4.362 4.363.801.036 1.056.045 3.093.045s2.293-.009 3.092-.045c2.722-.125 4.24-1.636 4.362-4.362.037-.8.046-1.056.046-3.093s-.009-2.292-.045-3.092C15.333 2.187 13.819.671 11.093.546 10.293.509 10.037.5 8 .5Zm0 3.649a3.851 3.851 0 1 0 0 7.703 3.851 3.851 0 0 0 0-7.703ZM8 10.5a2.5 2.5 0 1 1 0-5 2.5 2.5 0 0 1 0 5Zm4.004-7.403a.9.9 0 1 0 0 1.8.9.9 0 0 0 0-1.8Z" fill="#F63" fill-rule="evenodd"/></svg>