<svg xmlns="http://www.w3.org/2000/svg" viewBox="0 0 1000 1000" xml:space="preserve"><path d="M948 204H52c-23.2 0-42 18.8-42 42v508c0 23.2 18.8 42 42 42h896c23.2 0 42-18.8 42-42V246c0-23.2-18.8-42-42-42zm-27.3 522.7H79.3V273.3h841.4v453.4z"/><path d="M342.2 674.9c8.9 0 17.5.2 26.1-2.3 15-4.3 28.1-14.8 35.4-28.5 4.1-7.6 6.1-15.8 6.7-24.3.1-1.9.2-3.7.2-5.6V325h-86.2c-6.4 0-12.5 1.1-18.5 3.1-16.2 5.1-29.9 18.7-35.8 34.5-3.4 8.9-3.8 18-3.8 27.3v145.2c2.6-1.3 5.7-1.3 8.4-.2 9.7 4.2 19.8 7.1 29 8.3 4.2.6 7.7.8 10.8.8 5.7 0 10.5-.9 14.6-2.7.1 0 .2-.1.3-.1 7-2.8 12.1-10 13.1-18.7l.2-65.1c0-5.5 4.5-10 10-10H391c5.5 0 10 4.5 10 10V519c0 8.2-1.6 20-9.3 29.7-9.8 12.2-25.5 17.4-37 19.5-2.7.5-5.4.7-7.9 1l-3.3.3c-2.9.3-6.2.5-9.8.7-4.3.2-7.8.2-11 .2-2.9 0-5.5-.1-8.1-.2-11.4-.6-23.3-1.9-38.5-4.5-2.8-.5-5.5-1.1-7.8-1.7-.7-.2-1.4-.4-2-.7v111.5h38.1c12.6.1 25.2.1 37.8.1zM593.4 447h74.8c5.2 0 9.5.1 13.9.8 7.3 1.1 17.4 4.1 24.3 12.4.1.1.1.2.2.2 7.5 9.6 8.1 22.9 1.5 33.8-2.7 4.3-6.8 7.9-11.7 10.5 11.4 4 21.5 12.1 23.1 25.9.8 7-.7 13.9-4.1 19-2.5 3.7-5.5 7.7-9.7 10-6.9 5.2-15.7 6.6-22.5 7.3-2.5.2-5.3.4-8.6.4-1.9 0-3.8 0-5.7-.1-1.8 0-3.7-.1-5.5-.1h-69.6c-1.6 0-3-.4-4.4-1l.1 108.8h75.7c8.1 0 16.3.4 24.1-1.7 15.2-4 28.7-13.7 36.6-27.4 5.5-9.7 7.9-20.2 7.9-31.3V325H657c-9.4 0-18.5-.1-27.6 2.9-6.5 2.6-12.6 5.4-18.1 9.8-6.4 5.1-11.7 11.5-15.6 18.8-4.4 8.4-6.6 17.8-6.6 27.2l.1 64.5c1.2-.8 2.7-1.2 4.2-1.2z"/><path d="M620.2 541h28c11.9 0 13.8-8.2 13.8-11.5 0-3.8-1.8-7.3-4.8-9.3-2.5-1.7-5.5-2.1-9.5-2.1h-27.5V541zm35.4-51.5c2.4-2.8 3.2-7.1 1.8-10.5-1.3-3.2-4.1-5.6-6.9-6.1-.3 0-2-.5-5.9-.4h-24.4v20.4h26.6c2.8 0 6.3-.6 8.8-3.4zm-227.9-28.9c7.2-5 15.3-8.8 24.5-11.4 5.7-1.6 11.1-2.5 16.9-3.5l2.6-.4c6.4-1.1 13-1.2 19.3-1.3 6.6-.1 13 0 18.9.2 12.1.5 23.5 2.6 35.5 4.8l2.7.5c.7.1 1.5.3 2.3.4 4.6 1 8 5.1 8 9.8V470c0 3.4-1.7 6.5-4.5 8.4-2.8 1.9-6.4 2.2-9.5.8-8.9-3.9-18.4-6.5-28.3-7.9-6.7-.9-13.7-1.1-19.5-.4-7.5.9-13.4 2.7-18.1 5.7-.1.1-.3.2-.4.2-6.5 3.6-11.8 11.2-13.7 19.3-2.6 10.6-1.3 22.2 3.2 30.3 3.7 6.6 10 11.6 18.3 14.6h.1c9.2 2.5 17 3.2 24.4 2.3 12.7-1.5 23.7-4.4 33.8-8.8 3.1-1.4 6.7-1.1 9.5.8 2.8 1.9 4.5 5 4.5 8.4v10.5c0 4.6-3.2 8.6-7.7 9.7-11.5 2.8-22.9 4.3-33.5 5.6-6.5.8-13.2.8-19.1.8h-5.2c-5.3 0-9.7-.1-14.1-.5-5.7-.6-12.4-1.3-19.3-2.8-7.5-1.6-14.7-4.1-21.9-7.7-2.9-1.4-6.3-3.2-9.6-5.5l.1 121.2h75.5c8.4 0 16.8.4 25-1.8 13.6-4 24.9-11.6 33.3-23 5.7-8.9 9.6-18.3 10.5-29 .2-2 .2-3.9.2-5.9V325h-77c-9.2 0-18.4-.2-27.3 2.9-16.7 5.8-31.1 18.7-36.9 35.7-4 10.1-3.5 20.9-3.5 31.6v65.4z"/><g/><g/><g/><g/><g/><g/><g/><g/><g/><g/><g/><g/><g/><g/><g/></svg>