<svg width="15" height="15" viewBox="0 0 15 15" xmlns="http://www.w3.org/2000/svg"><path d="M13.636 0H1.364C.61 0 0 .61 0 1.364v12.272C0 14.39.61 15 1.364 15h12.272C14.39 15 15 14.39 15 13.636V1.364C15 .61 14.39 0 13.636 0ZM4.741 12.273H2.73V5.8h2.011v6.472ZM3.715 4.876a1.173 1.173 0 1 1 0-2.346 1.173 1.173 0 0 1 0 2.346Zm8.56 7.397h-2.01V9.125c0-.75-.013-1.716-1.045-1.716-1.046 0-1.207.818-1.207 1.662v3.202h-2.01V5.8h1.93v.884h.027c.268-.508.924-1.045 1.903-1.045 2.036 0 2.412 1.34 2.412 3.083v3.55Z" fill="#F63"/></svg>