<svg width="69" height="40" viewBox="0 0 69 40" fill="none" xmlns="http://www.w3.org/2000/svg"><path d="M22.215 17.345c-.648 2.077-1.31 3.405-3.184 3.338-.564 1.285-1.464 2.312-2.764 2.599-1.299.287-2.476-.284-2.85-1.99-.502-2.266.23-7.477 3.45-8.185 1.299-.287 2.458.287 2.83 1.976.241 1.089.185 2.85-.256 4.44.973-.01 1.534-.745 2.14-2.595.259-.056.486.172.634.417ZM17.43 20.28a1.108 1.108 0 0 1-.487-.704c-.143-.651.305-1.303.995-1.341.186-1.167.228-2.315.08-2.984-.16-.74-.542-.967-.948-.88-1.549.34-2.34 5.104-1.98 6.74.148.668.536 1.004 1.01.903.542-.123.997-.813 1.33-1.734Z" fill="#F63"/><path d="M29.664 15.706c-.75 2.375-1.863 5.037-4.676 5.656-1.775.393-2.941-.308-3.323-2.031-.557-2.532.546-7.4 3.464-8.042 1.863-.41 2.325 1.913 1.772 2.939-.599 1.103-1.047.977-1.114.757-.066-.221.186-2.295-.396-2.165-1.74.382-2.308 4.914-2.014 6.248.19.862.932 1.216 1.811 1.02 1.583-.347 3.156-2.32 3.965-4.837.263-.063.364.21.511.455Z" fill="#F63"/><path d="M38.154 13.836c-.616 2.052-2.2 5.11-4.168 5.544-1.688.371-2.602-1.436-2.795-2.903-.122-.967.12-1.132.501-1.237.648-.161 1.548-.413 1.867-2.07.025-.133.242-1.324.154-1.73-.063-.28-.305-.375-.585-.312-.473.105-1.226.711-1.825 1.748 0 0-1.082 6.69-1.145 6.938-.178.729-1.947 1.125-1.762.01.186-1.113 1.958-11.935 2.095-12.66.186-.999 1.958-1.023 1.765.126l-.634 3.782s.851-1.404 2.137-1.688c.809-.179 1.54.14 1.733 1.02.214.966-.196 2.623-.255 2.857-.368 1.426-1.128 2.33-2.4 2.74.312 1.922.834 2.192 1.324 2.083 1.02-.224 2.69-2.27 3.39-4.69.267-.056.46.197.603.442Z" fill="#F63"/><path d="M43.002 12.767c-.82 2.63-1.706 5.002-3.64 5.426-1.495.329-2.553-.47-1.982-3.895l.96-5.684s-1.261.276-1.618.357c-.358.077-.354-.918.178-1.033l1.618-.358s.4-2.336.494-2.84c.112-.624 1.94-1.002 1.822-.256-.088.543-.47 2.69-.47 2.69l1.548-.34c.322-.07.358.918-.178 1.033-.347.078-1.548.34-1.548.34L39.1 14.655c-.368 2.182.09 2.34.497 2.249 1.037-.228 2.126-2.22 2.893-4.599.263-.056.364.217.512.462ZM56.78 9.811c-.868 2.753-1.653 4.893-3.411 5.282-1.426.315-2.5-.48-1.93-3.905 0 0 .77-4.704.865-5.145.2-.953 1.972-1.156 1.846-.407l-.991 5.91c-.35 2.087.056 2.346.441 2.262.897-.197 1.902-2.245 2.648-4.547.266-.06.385.305.532.55Zm-4.154-6.626a1.091 1.091 0 0 1 .837-1.31 1.107 1.107 0 0 1 1.328.833 1.121 1.121 0 0 1-.851 1.331 1.107 1.107 0 0 1-1.314-.854Z" fill="#F63"/><path d="M52.465 10.778c-.833 2.655-1.965 5.058-3.772 5.457-1.6.354-1.909-1.054-1.909-1.054s-.746 1.639-2.168 1.95c-1.124.25-1.877-.49-2.122-1.597-.414-1.88-.025-7.975 2.963-8.633 1.478-.326 2.052 1.04 2.052 1.04s.088-.669.179-1.1c.21-1.022 1.916-.812 1.748.172-.165.984-.94 5.67-.94 5.67-.325 1.951.004 2.357.46 2.256.879-.193 1.884-2.238 2.63-4.543.266-.056.732.137.88.382Zm-5.873 2.62.665-3.923s-.26-1.268-1.142-1.075c-1.653.364-2.234 5.082-1.93 6.469.109.494.354.68.74.592 1.04-.228 1.667-2.063 1.667-2.063Zm15.176-4.763c-.939 3.082-2 5.064-3.755 5.453-1.422.315-2.5-.48-1.93-3.905 0 0 1.422-8.091 1.573-9.278.175-1.38 1.961-1.002 1.783-.06-.092.48-1.636 9.695-1.636 9.695-.35 2.087.056 2.347.441 2.262.897-.196 1.986-2.406 2.648-4.546.19-.62 1.138-.49.876.379ZM13.346 18.729c-.998 3.075-3.054 5.208-4.777 5.586-1.3.287-1.877-.49-2.108-1.545-.151-.686-.232-1.72-.144-2.826l.245-.053c2.462-.542 4.164-1.93 5.184-3.481 1.187-1.81 1.39-3.734 1.096-5.068-.336-1.53-1.482-2.623-3.096-2.266-2.9.637-4.704 5.33-5.166 9.505-1.44-.02-2.764-.987-3.04-2.248-.435-1.975.563-2.592.08-3.058-.672-.648-2 1.093-1.516 3.3.364 1.653 1.726 3.323 4.364 3.498-.046 1.135.038 2.186.224 3.03.378 1.723 1.359 3.24 3.782 2.704 2.813-.62 4.508-3.352 5.566-6.662-.144-.245-.427-.476-.694-.416Zm-3.488-7.821c.634-.14 1.065.318 1.23 1.057.213.967-.064 2.393-.852 3.67a6.097 6.097 0 0 1-3.73 2.722c.49-3.372 1.769-7.1 3.352-7.45Zm13.663 14.514c-.336-1.53-1.387-2.623-3.005-2.266-2.9.637-6.403 8.132-5.149 14.03.368 1.727 1.454 3.24 3.877 2.704 2.813-.62 4.508-3.351 5.566-6.661-.147-.245-.43-.477-.694-.42-.998 3.075-3.05 5.218-4.777 5.586-1.142.241-2.89-.67-2.16-5.958.465-3.373 1.866-7.1 3.446-7.446.633-.14 1.068.319 1.229 1.058.357 1.646-.088 3.271-.4 3.982-.385.886.624 1.306 1.048.567 1.233-2.147 1.166-4.507 1.019-5.176Z" fill="#F63"/><path d="M33.443 31.33c-.648 2.077-1.765 3.503-3.639 3.436-.563 1.286-1.464 2.312-2.763 2.6-1.3.286-2.476-.285-2.851-1.99-.5-2.266.231-7.478 3.45-8.185 1.3-.288 2.459.287 2.83 1.975.242 1.09.186 2.85-.256 4.441.974-.01 1.934-.851 2.54-2.697.259-.056.542.175.69.42ZM28.2 34.364a1.108 1.108 0 0 1-.487-.704c-.143-.652.305-1.303.995-1.342.186-1.166.228-2.315.08-2.984-.16-.739-.546-.967-.948-.88-1.549.34-2.34 5.104-1.98 6.74.148.669.537 1.005 1.01.9.542-.12 1.001-.81 1.33-1.73Z" fill="#F63"/><path d="M42.448 29.345c-.82 2.63-1.982 5.06-3.754 5.453-.897.196-1.696-.088-1.972-1.17-.571 1.009-1.244 1.877-2.249 2.098-1.317.29-2.487-.41-1.895-3.912 0 0 .792-4.757.96-5.685.168-.928 1.965-1.11 1.793-.101-.168 1.008-1.033 6.143-1.033 6.143-.33 1.933-.035 2.182.333 2.102 1.036-.228 1.856-2.53 2.248-4.014 0 0 .725-4.41.827-4.974.157-.854 1.979-1.072 1.793-.094-.22 1.17-1.02 6.059-1.02 6.059-.325 1.95.004 2.357.46 2.259.879-.193 1.884-2.238 2.63-4.543.266-.056.732.137.88.378Z" fill="#F63"/><path d="M41.57 28.966c.304-.952.612-2.234.875-3.474-.39-.263-.7-.582-.792-1.005-.182-.827.564-1.881 1.152-2.207.589-.326 1.188-.053 1.146.687-.042.739-.375 1.485-.375 1.485.855.528 2.41.98 2.655 2.105.045.21.06.521-.014.942l-.36 2.126c-.369 2.182.125 2.332.405 2.27.67-.148 1.342-1.696 2.242-4.456.263-.06.728.133.876.378-.838 2.634-1.7 5.002-3.37 5.37-1.387.304-2.459-.62-1.877-3.916l.301-1.727c.063-.381.042-.564.028-.634-.077-.35-.494-.574-1.163-.924a42.496 42.496 0 0 1-.861 3.358c-.256.06-.722-.133-.869-.378Z" fill="#F63"/><path d="M54.027 26.795c-.868 2.753-2 5.064-3.754 5.453-1.426.315-2.501-.48-1.93-3.905 0 0 .767-4.613.886-5.352.119-.739 1.94-.974 1.814-.224-.126.746-.984 5.937-.984 5.937-.35 2.087.056 2.346.441 2.262.897-.196 1.902-2.245 2.648-4.546.266-.063.736.13.88.375ZM49.53 20.34a1.091 1.091 0 0 1 .837-1.31 1.107 1.107 0 0 1 1.328.833 1.121 1.121 0 0 1-.852 1.331 1.104 1.104 0 0 1-1.313-.854Z" fill="#F63"/><path d="M61.568 25.135c-.75 2.374-2.227 5.117-5.04 5.737-1.776.392-2.942-.312-3.327-2.05-.557-2.532.55-7.383 3.502-8.03 1.723-.379 2.935.938 2.378 3.27-.49 2.116-1.902 2.908-4.206 3.156 0 0-.434 2.88 1.797 2.386 1.705-.375 3.19-2.326 4.017-4.848.266-.06.732.133.879.379Zm-6.595 1.008c1.755-.073 2.22-1.134 2.459-2.217.28-1.24.098-1.733-.519-1.6-1.53.336-1.94 3.817-1.94 3.817Z" fill="#F63"/><path d="M68.622 21.02c-.186-3.002-1.426-5.811-3.751-7.741-.55-.46-1.265.241-.708.704 2.116 1.758 3.142 4.308 3.342 7.036.094 1.3.077 2.806-.442 4.172-.68 1.782-1.53 2.133-1.754 2.168-.284.045-.69.234-.326-1.948l.36-2.126c.074-.42.06-.732.015-.942-.249-1.124-1.804-1.576-2.659-2.105 0 0 .333-.746.375-1.485.042-.739-.557-1.012-1.145-.686-.589.325-1.335 1.38-1.153 2.206.095.42.403.74.792 1.005-.263 1.237-.567 2.522-.876 3.475.148.245.613.438.876.378.354-1.149.634-2.315.862-3.359.665.35 1.085.571 1.162.925.014.07.035.248-.028.634l-.3 1.727c-.582 3.299.486 4.223 1.877 3.915 1.67-.367 3.113-2.581 3.414-5.306v-.01c.12-.827.126-1.7.067-2.638Z" fill="#F63"/></svg>