<svg width="184" height="24" viewBox="0 0 184 24" fill="none" xmlns="http://www.w3.org/2000/svg"><path d="M116.289 15.232c-2.442 4.168-6.127 6.61-8.759 6.61-1.985 0-2.581-1.32-2.581-2.925 0-1.044.216-2.58.699-4.168h.38c3.763 0 6.688-1.476 8.682-3.41 2.313-2.26 3.227-4.996 3.227-7.041 0-2.339-1.32-4.298-3.788-4.298-4.436 0-8.57 6.265-10.589 12.203-2.097-.483-3.711-2.322-3.711-4.246 0-3.02 1.657-3.599 1.096-4.436-.777-1.156-3.27.95-3.27 4.324 0 2.528 1.449 5.402 5.238 6.507-.432 1.64-.648 3.201-.648 4.487 0 2.632.941 5.161 4.652 5.161 4.298 0 7.646-3.443 10.252-7.931-.138-.406-.474-.837-.88-.837Zm-2.58-12.522c.966 0 1.45.802 1.45 1.933 0 1.476-.863 3.47-2.417 5.083-1.536 1.588-3.711 2.684-6.317 2.77 1.804-4.764 4.867-9.786 7.284-9.786Zm58.511 12.522c.751-1.286 1.614-3.064 2.391-4.781-.484-.51-.838-1.079-.838-1.717 0-1.26 1.433-2.564 2.391-2.848.966-.285 1.752.31 1.45 1.372-.294 1.061-1.019 2.045-1.019 2.045 1.079 1.044 3.202 2.2 3.202 3.927 0 .32-.078.777-.319 1.372l-1.208 2.986c-1.234 3.064-.561 3.443-.138 3.443 1.018 0 2.942-1.726 4.392-5.178.32-.76 1.295-.509 1.044.233-1.311 3.884-3.667 6.749-6.222 6.749-2.123 0-3.383-1.692-1.476-6.317l.993-2.417c.216-.535.242-.802.242-.914 0-.535-.535-.993-1.398-1.718-.674 1.45-1.45 3.064-2.339 4.626-.397-.035-1.019-.457-1.148-.863ZM32 16.06c-1.614 2.822-3.003 4.54-5.713 3.84-1.234 1.692-2.874 2.9-4.867 2.9-1.985 0-3.521-1.208-3.521-3.814 0-3.47 2.744-10.83 7.663-10.83 1.985 0 3.495 1.208 3.495 3.788 0 1.665-.647 4.22-1.803 6.395 1.423.293 2.476-.596 3.952-3.098.406.008.656.422.794.82Zm-7.922 2.745a1.646 1.646 0 0 1-.484-1.183c0-.992.863-1.803 1.882-1.64.647-1.639 1.079-3.304 1.079-4.323 0-1.13-.484-1.588-1.105-1.588-2.365 0-5.049 6.688-5.049 9.191 0 1.018.458 1.64 1.183 1.64.828 0 1.717-.863 2.494-2.097Z" fill="#F63"/><path d="M43.392 16.06c-1.856 3.228-4.333 6.75-8.63 6.75-2.719 0-4.195-1.399-4.195-4.031 0-3.866 3.168-10.615 7.63-10.615 2.847 0 2.778 3.538 1.639 4.85-1.225 1.415-1.838 1.087-1.864.742-.026-.345 1.01-3.288.12-3.288-2.657 0-4.944 6.42-4.944 8.466 0 1.32.966 2.071 2.313 2.071 2.416 0 5.35-2.364 7.335-5.782.397.009.458.44.596.837Z" fill="#F63"/><path d="M56.371 16.06c-1.562 2.797-4.85 6.75-7.862 6.75-2.58 0-3.331-2.935-3.141-5.136.138-1.45.535-1.614 1.13-1.64.993-.025 2.39-.103 3.383-2.416.078-.19.777-1.855.777-2.477 0-.431-.32-.647-.75-.647-.726 0-2.02.647-3.228 1.96 0 0-3.728 9.406-3.901 9.751-.5 1.001-3.202 1.01-2.572-.552.63-1.562 6.688-16.777 7.12-17.795.595-1.398 3.184-.863 2.537.75-.647 1.614-2.14 5.308-2.14 5.308s1.691-1.778 3.659-1.778c1.234 0 2.2.7 2.2 2.045 0 1.476-1.13 3.763-1.285 4.082-.993 1.96-2.39 3.038-4.384 3.228-.164 2.9.509 3.47 1.26 3.47 1.562 0 4.651-2.443 6.446-5.757.423.026.622.457.751.854Z" fill="#F63"/><path d="M63.784 16.06c-2.045 3.573-4.09 6.75-7.05 6.75-2.287 0-3.573-1.502-1.64-6.318l3.227-7.983h-2.476c-.544 0-.225-1.45.595-1.45h2.477s1.338-3.28 1.631-3.987c.362-.871 3.15-.837 2.736.216-.302.768-1.545 3.771-1.545 3.771h2.364c.492 0 .225 1.45-.595 1.45h-2.365l-3.65 9.062c-1.234 3.063-.621 3.443 0 3.443 1.588 0 3.814-2.554 5.696-5.782.405 0 .466.431.595.828Zm21.196.138c-2.15 3.737-3.988 6.611-6.672 6.611-2.174 0-3.495-1.502-1.562-6.317 0 0 2.633-6.61 2.909-7.223.595-1.32 3.245-1.053 2.822 0l-3.34 8.302c-1.182 2.925-.673 3.443-.078 3.443 1.373 0 3.496-2.658 5.325-5.782.397 0 .457.57.596.966ZM81.043 5.204c0-.915.725-1.64 1.64-1.64.915 0 1.666.725 1.666 1.64 0 .915-.751 1.665-1.666 1.665-.906 0-1.64-.75-1.64-1.665Z" fill="#F63"/><path d="M78.386 16.06c-2.071 3.6-4.487 6.75-7.258 6.75-2.442 0-2.442-2.15-2.442-2.15s-1.614 2.15-3.789 2.15c-1.717 0-2.58-1.321-2.58-3.013 0-2.874 2.529-11.642 7.094-11.642 2.261 0 2.658 2.175 2.658 2.175s.345-.95.613-1.545c.638-1.424 3.055-.57 2.494.812a3338.31 3338.31 0 0 0-3.193 7.965c-1.105 2.744-.751 3.443-.052 3.443 1.346 0 3.47-2.658 5.299-5.782.405.009 1.018.44 1.156.837Zm-9.406 1.942 2.226-5.506s.026-1.933-1.32-1.933c-2.529 0-4.894 6.688-4.894 8.811 0 .751.294 1.105.89 1.105 1.596-.009 3.097-2.477 3.097-2.477Zm23.499-1.942c-2.356 4.195-4.54 6.75-7.232 6.75-2.175 0-3.495-1.503-1.562-6.318 0 0 4.669-11.34 5.273-13.023.699-1.95 3.184-.837 2.623.484a5921.33 5921.33 0 0 0-5.497 13.618c-1.182 2.925-.673 3.443-.078 3.443 1.373 0 3.668-2.874 5.325-5.782.475-.837 1.812-.345 1.148.828Zm37.886 0c-1.614 2.822-3.703 4.54-6.412 3.84-1.235 1.692-2.874 2.9-4.868 2.9-1.985 0-3.521-1.208-3.521-3.814 0-3.47 2.744-10.83 7.664-10.83 1.984 0 3.495 1.208 3.495 3.788 0 1.665-.648 4.22-1.804 6.395 1.424.293 3.09-.622 4.565-3.116.406.009.742.44.881.837Zm-8.622 2.745a1.647 1.647 0 0 1-.483-1.183c0-.992.863-1.803 1.881-1.64.648-1.639 1.079-3.304 1.079-4.323 0-1.13-.483-1.588-1.105-1.588-2.364 0-5.048 6.688-5.048 9.191 0 1.018.457 1.64 1.182 1.64.829 0 1.718-.863 2.494-2.097Z" fill="#F63"/><path d="M144.138 16.06c-2.045 3.573-4.513 6.75-7.232 6.75-1.372 0-2.442-.674-2.503-2.34-1.156 1.286-2.416 2.34-3.952 2.34-2.02 0-3.495-1.399-1.502-6.318 0 0 2.684-6.68 3.228-7.983s3.219-.984 2.649.432a11913 11913 0 0 1-3.486 8.63c-1.105 2.71-.751 3.167-.19 3.167 1.588 0 3.521-3.09 4.565-5.135 0 0 2.468-6.196 2.805-6.99.5-1.191 3.228-.932 2.649.44-.699 1.64-3.434 8.509-3.434 8.509-1.105 2.744-.751 3.443-.052 3.443 1.346 0 3.469-2.658 5.299-5.782.397.009 1.018.44 1.156.837Z" fill="#F63"/><path d="M142.982 15.232c.75-1.286 1.613-3.064 2.39-4.781-.483-.51-.837-1.079-.837-1.717 0-1.26 1.433-2.564 2.391-2.848.966-.285 1.743.31 1.449 1.372-.293 1.061-1.018 2.045-1.018 2.045 1.079 1.044 3.202 2.2 3.202 3.927 0 .32-.078.777-.32 1.372l-1.208 2.986c-1.234 3.064-.561 3.443-.138 3.443 1.019 0 2.503-2.045 4.704-5.782.405 0 1.018.432 1.156.837-2.071 3.573-4.082 6.749-6.637 6.749-2.122 0-3.382-1.692-1.475-6.317l.992-2.417c.216-.535.242-.802.242-.914 0-.535-.535-.993-1.398-1.718-.673 1.45-1.45 3.064-2.339 4.626-.406-.035-1.027-.457-1.156-.863Z" fill="#F63"/><path d="M161.847 16.06c-2.149 3.737-4.54 6.75-7.232 6.75-2.175 0-3.495-1.503-1.562-6.318 0 0 2.606-6.481 3.012-7.525.414-1.036 3.141-.794 2.718.258-.423 1.053-3.34 8.346-3.34 8.346-1.182 2.925-.673 3.443-.077 3.443 1.372 0 3.495-2.658 5.324-5.782.397 0 1.019.431 1.157.828Zm-4.488-10.856c0-.915.725-1.64 1.64-1.64a1.65 1.65 0 0 1 1.665 1.64c0 .915-.75 1.665-1.665 1.665s-1.64-.75-1.64-1.665Z" fill="#F63"/><path d="M173.376 16.06c-1.855 3.228-4.893 6.75-9.19 6.75-2.719 0-4.195-1.399-4.195-4.057 0-3.866 3.168-10.589 7.69-10.589 2.632 0 3.978 2.313 2.416 5.54-1.398 2.926-3.711 3.625-7.146 3.254 0 0-1.562 4.056 1.856 4.056 2.606 0 5.402-2.365 7.422-5.782.388 0 1.009.431 1.147.828Zm-9.95-.638c2.58.457 3.599-.94 4.298-2.443.802-1.717.699-2.502-.242-2.502-2.33 0-4.056 4.945-4.056 4.945Zm-144.803-.19c-2.442 4.168-6.127 6.61-8.759 6.61-1.985 0-2.58-1.32-2.58-2.925 0-1.044.215-2.58.699-4.168h.38c3.762 0 6.688-1.476 8.681-3.41 2.313-2.26 3.228-4.996 3.228-7.041 0-2.339-1.32-4.298-3.789-4.298C12.04-.009 7.905 6.257 5.886 12.194c-2.097-.483-3.711-2.321-3.711-4.246 0-3.02 1.657-3.598 1.096-4.436C2.494 2.347 0 4.462 0 7.836c0 2.529 1.45 5.402 5.238 6.507-.431 1.64-.647 3.202-.647 4.488 0 2.632.94 5.16 4.652 5.16 4.297 0 7.646-3.443 10.252-7.93-.13-.398-.466-.83-.872-.83ZM16.044 2.71c.967 0 1.45.802 1.45 1.933 0 1.476-.863 3.47-2.416 5.083-1.537 1.588-3.711 2.684-6.318 2.77 1.804-4.764 4.868-9.786 7.284-9.786Z" fill="#F63"/></svg>