<svg width="25" height="16" xmlns="http://www.w3.org/2000/svg" viewBox="0 0 25 16"><path d="M9.528 7.807a7.303 7.303 0 0 1 2.808-5.766A7.388 7.388 0 0 0 7.75.453C3.664.453.353 3.745.353 7.807c0 4.011 3.311 7.354 7.396 7.354a7.388 7.388 0 0 0 4.587-1.587 7.324 7.324 0 0 1-2.808-5.767" fill="#eb001b"/><path d="M9.528 7.81a7.324 7.324 0 0 0 2.809 5.766 7.324 7.324 0 0 0 2.808-5.766 7.298 7.298 0 0 0-2.808-5.766A7.298 7.298 0 0 0 9.528 7.81" fill="#ff5e00"/><path d="M16.924.453a7.388 7.388 0 0 0-4.588 1.588 7.302 7.302 0 0 1 2.809 5.766 7.324 7.324 0 0 1-2.809 5.767 7.388 7.388 0 0 0 4.588 1.588c4.135 0 7.396-3.344 7.396-7.355 0-4.062-3.261-7.354-7.396-7.354" fill="#f79e1c"/></svg>