<svg width="14" height="16" xmlns="http://www.w3.org/2000/svg" viewBox="0 0 14 16"><path d="M11.542 1.515C10.882.709 9.588.364 7.924.364H3.118c-.272 0-.556.243-.608.573L.53 13.465c0 .247.157.47.407.47h2.928l.736-4.662-.023.143a.677.677 0 0 1 .668-.573h1.392c2.733 0 4.874-1.11 5.539-4.323v-.338c-.07 0-.07 0 0 0 .195-1.127 0-1.935-.635-2.667" fill="#27346a"/><path d="M5.706 3.814a.719.719 0 0 1 .271-.057h3.719c.44 0 .851.028 1.186.089a4.37 4.37 0 0 1 .789.179c.185.061.357.157.506.157.195-1.128 0-1.935-.635-2.667C10.882.709 9.588.364 7.924.364H3.118c-.272 0-.556.243-.608.573L.53 13.465c0 .247.157.47.407.47h2.928l1.526-9.677a.614.614 0 0 1 .315-.444z" fill="#27346a"/><path d="M12.177 4.523c-.662 3.212-2.803 4.324-5.537 4.324H5.248a.676.676 0 0 0-.667.573l-.915 5.8a.36.36 0 0 0 .351.416h2.469c.292 0 .514-.216.586-.504l.024-.126.466-2.95.03-.162a.594.594 0 0 1 .586-.502h.37c2.334 0 4.263-.971 4.81-3.781.229-1.175.113-2.156-.494-2.844a2.261 2.261 0 0 0-.687-.522v.278z" fill="#2790c3"/><path d="M11.533 3.987a4.545 4.545 0 0 0-.295-.076 3.287 3.287 0 0 0-.356-.06 6.824 6.824 0 0 0-1.184-.09H5.98a.727.727 0 0 0-.274.06.615.615 0 0 0-.313.442l-.79 5.01-.023.149a.676.676 0 0 1 .668-.573H6.64c2.734 0 4.874-1.111 5.537-4.324v-.278c-.147-.065-.319-.155-.503-.217a4.197 4.197 0 0 0-.14-.043" fill="#1f264f"/></svg>