<svg width="15" height="15" viewBox="0 0 15 15" xmlns="http://www.w3.org/2000/svg"><g fill="none"><rect fill="#F63" width="15" height="15" rx="1"/><path d="M7.85 2C4.625 2 3 4.145 3 5.96c0 1.072.444 2.034 1.39 2.392.148.055.295 0 .355-.138l.118-.522c.059-.165.03-.22-.089-.358-.266-.302-.443-.687-.443-1.237 0-1.595 1.271-3.025 3.341-3.025 1.833 0 2.839 1.045 2.839 2.42 0 1.842-.887 3.355-2.159 3.355-.71 0-1.242-.523-1.064-1.21.177-.797.591-1.65.591-2.227 0-.523-.296-.963-.917-.963-.739 0-1.3.715-1.3 1.65 0 .578.206.99.206.99l-.887 3.437c-.236 1.018-.03 2.282 0 2.392 0 .083.118.11.148.055.06-.082.946-1.072 1.242-2.062l.473-1.76c.237.44.917.798 1.656.798 2.188 0 3.667-1.843 3.667-4.317 0-1.898-1.715-3.63-4.318-3.63Z" fill="#FFF"/></g></svg>