<svg width="16" height="12" viewBox="0 0 16 12" fill="none" xmlns="http://www.w3.org/2000/svg"><path fill-rule="evenodd" clip-rule="evenodd" d="M7 4a.2.2 0 0 0 .2-.2v-.4a.2.2 0 0 0-.2-.2H1a.2.2 0 0 0-.2.2v.4c0 .11.09.2.2.2h6Zm8.8 4.8h-.6V6.097c0-.42-.17-.832-.47-1.13L12.632 2.87a1.59 1.59 0 0 0-1.13-.47H10.4V1.165C10.4.522 9.845 0 9.165 0h-6.33C2.155 0 1.6.522 1.6 1.165V1.6H.2a.2.2 0 0 0-.2.2v.4c0 .11.09.2.2.2h6a.2.2 0 0 0 .2-.2v-.4a.2.2 0 0 0-.2-.2H2.4v-.435C2.4.962 2.595.8 2.835.8h6.33c.24 0 .435.162.435.365V8.8H5.19a1.971 1.971 0 0 0-2.79-.39V6.4h-.8V10a2 2 0 1 0 3.96-.4h4.88a2 2 0 1 0 3.92 0h1.44a.2.2 0 0 0 .2-.2V9a.2.2 0 0 0-.2-.2ZM3.6 11.2a1.2 1.2 0 1 1 0-2.4 1.2 1.2 0 0 1 0 2.4Zm6.8-8h1.102c.21 0 .418.085.566.235l2.097 2.097c.02.02.028.048.045.07H10.4V3.2Zm2 8a1.2 1.2 0 1 1 0-2.4 1.2 1.2 0 0 1 0 2.4Zm2-2.4h-.41c-.365-.482-.94-.8-1.59-.8-.65 0-1.225.318-1.59.8h-.41V6.4h4v2.4Zm-8-3.4V5a.2.2 0 0 0-.2-.2h-6A.2.2 0 0 0 0 5v.4c0 .11.09.2.2.2h6a.2.2 0 0 0 .2-.2Z" fill="#000"/></svg>