<svg width="16" height="21" viewBox="0 0 16 21" xmlns="http://www.w3.org/2000/svg"><g fill="none" fill-rule="evenodd"><path d="M3.5 1.75A1.75 1.75 0 1 0 1.75 3.5" stroke="#B74602" stroke-width=".5" transform="translate(.35 .7)"/><path fill="#FFE9E1" fill-rule="nonzero" d="m1.687 3.7-.646-.837" transform="translate(.35 .7)"/><path d="M7.27 10.1 1.224 2.762a.5.5 0 0 1 .386-.818h12.876a.5.5 0 0 1 .385.82L8.786 10.1H7.27Zm0 0-.02 6.667a.56.56 0 0 1-.008.091c-.074.389-.14.642-.2.76-.057.112-.19.262-.398.448a.502.502 0 0 1-.123.081l-1.799.835a.31.31 0 0 0 .04.618h4.281m-.257-9.5v6.633c.032.497.118.86.257 1.09.137.224.394.433.772.627a.52.52 0 0 0 .052.023l1.84.695a.229.229 0 0 1-.11.436 2.295 2.295 0 0 0-.126-.004H9.84" stroke="#B74602" stroke-width=".5" transform="translate(.35 .7)"/><path d="m2.079 3.72 1.25-.316c.395-.037.722-.037.983 0 .26.036.679.142 1.255.316m8.565-.042c-.65 0-1.63.26-2.94.78-.934.356-1.65.501-2.149.434-.499-.067-1.235-.349-2.209-.844" stroke="#B74602" stroke-width=".5" transform="translate(.35 .7)"/></g></svg>