<svg width="19" height="15" xmlns="http://www.w3.org/2000/svg" viewBox="0 0 19 15"><path d="M14.682 12.75a.872.872 0 0 1-.864-.875c0-.481.389-.875.864-.875s.863.394.863.875a.872.872 0 0 1-.863.875zm-8.447-2.625a2.55 2.55 0 0 0-1.917-.875 2.55 2.55 0 0 0-1.917.875h-.674V2.25h10.364v7.875zM4.318 12.75a.872.872 0 0 1-.863-.875c0-.481.388-.875.863-.875s.864.394.864.875a.872.872 0 0 1-.864.875zM16 5.312 17.67 7.5h-3.852V5.312zM16.41 4h-2.592V.5H1.728C.777.5 0 1.287 0 2.25v9.625h1.727c0 1.452 1.158 2.625 2.591 2.625 1.434 0 2.591-1.173 2.591-2.625h5.182c0 1.452 1.157 2.625 2.59 2.625 1.434 0 2.592-1.173 2.592-2.625H19V7.5z" fill="#F63"/></svg>