<svg width="31" height="11" xmlns="http://www.w3.org/2000/svg" viewBox="0 0 31 11"><path d="M22.284 3.455c-1.078-.624-3.531-.765-3.532.338 0 1.103 3.516 1.34 3.516 3.877 0 2.444-2.593 3.342-4.312 3.342-1.72 0-2.844-.551-2.844-.551l.375-2.192c1.031.835 4.101 1.073 4.101-.252 0-1.324-3.429-1.355-3.429-3.877 0-2.68 2.969-3.23 4.219-3.23 1.156 0 2.266.425 2.266.425zm5.748 3.936-.745-3.652-1.323 3.652zm.409 2.003h-3.203l-.473 1.45h-2.678l3.757-9.033s.215-.728 1.163-.728h2.025l2.017 9.76h-2.313zm-16.808-8.31-4.008 9.76H5l-2.235-8.48C1.39 1.504.177 1.25.177 1.25v-.165h4.016c1.093 0 1.16.878 1.16.878l.883 4.39V6.35l.284 1.445 2.402-6.712zm1.927 9.76h-2.52l1.575-9.76h2.52z" fill="#2566af"/><path d="m6.236 6.355-.883-4.389s-.067-.879-1.16-.879H.177v.166s1.908.398 3.738 1.893c1.75 1.429 2.321 3.21 2.321 3.21z" fill="#e6a540"/></svg>